<?xml version="1.0" encoding="utf-8"?>
<!-- Generator: Adobe Illustrator 28.3.0, SVG Export Plug-In . SVG Version: 6.00 Build 0)  -->
<svg version="1.1" id="Calque_1" xmlns="http://www.w3.org/2000/svg" xmlns:xlink="http://www.w3.org/1999/xlink" x="0px" y="0px"
	 viewBox="0 0 65 30" style="enable-background:new 0 0 65 30;" xml:space="preserve">
<style type="text/css">
	.st0{clip-path:url(#SVGID_00000103956695089794076870000006206346480855365025_);}
	.st1{fill:#FFFFFF;}
	.st2{clip-path:url(#SVGID_00000106868469117336531100000001134651255737087917_);}
	.st3{fill:none;stroke:#FFFFFF;}
</style>
<g>
	<defs>
		<rect id="SVGID_1_" x="26" y="6.5" width="31" height="16.4"/>
	</defs>
	<clipPath id="SVGID_00000067940291841540687960000016597608707142979470_">
		<use xlink:href="#SVGID_1_"  style="overflow:visible;"/>
	</clipPath>
	<g style="clip-path:url(#SVGID_00000067940291841540687960000016597608707142979470_);">
		<path class="st1" d="M57,9.5c-0.1,0-0.2,0.1-0.2,0.2c-0.1-0.1-0.2-0.1-0.3-0.2c-0.1,0-0.1-0.1-0.2,0c0,0-0.1,0-0.1,0
			c0,0,0-0.1,0-0.1c0,0,0,0,0,0.1c0,0.2,0,0.2-0.2,0.1c0,0-0.1,0-0.1,0c0,0.1,0,0.1,0.1,0.1C56,9.8,56,9.8,56,9.9c0,0,0,0.1,0,0.1
			c0,0.1-0.1,0-0.1,0c-0.2,0-0.3,0.1-0.4,0.1c-0.1,0-0.1,0.1-0.2,0.1c0,0-0.1,0-0.1,0c-0.1-0.1-0.3,0-0.4,0c-0.1,0-0.1,0-0.2,0.1
			c-0.1,0.1-0.1,0.2,0,0.3c0,0,0,0.1,0,0.1c0,0,0,0,0,0c0,0.2-0.2,0.2-0.2,0.4c-0.1,0.1-0.2,0.1-0.2,0.2c-0.1-0.2-0.1-0.4-0.1-0.6
			c0-0.1,0-0.1,0.1-0.2c0.2-0.1,0.3-0.3,0.5-0.4c0,0,0.1-0.1,0.1-0.1c0,0,0.1-0.1,0-0.1c0,0-0.1,0-0.1,0.1c0,0.1-0.2,0.1-0.3,0.2
			c0,0,0-0.1,0-0.1c0-0.1,0-0.1-0.1-0.1c-0.2,0-0.3,0.1-0.4,0.3c0,0.1-0.1,0.1-0.1,0.1c0,0,0,0,0,0c-0.1,0-0.3-0.1-0.4,0
			c-0.1,0-0.1,0-0.2,0c-0.1,0-0.1,0-0.2,0c-0.2,0.1-0.4,0.3-0.6,0.5c0,0,0,0.1,0,0.1c0.1,0.1,0.2,0.1,0.3,0.1c0.1,0,0.1,0.1,0.1,0.2
			c0,0.2,0,0.3-0.1,0.5c-0.1,0.2-0.2,0.4-0.4,0.6c-0.1,0.1-0.1,0.1-0.2,0.1c0,0-0.1,0-0.1,0c-0.1,0.1-0.2,0.2-0.3,0.3
			c0,0,0,0.1,0,0.1c0,0.1,0.1,0.2,0.1,0.3c0,0.1,0,0.2-0.1,0.2c-0.1,0,0,0,0-0.1c0-0.1,0-0.2-0.1-0.3c0,0,0,0,0-0.1
			c0-0.1,0-0.1-0.1-0.1c-0.1,0-0.2,0-0.2,0.1c0,0,0,0,0,0.1c0-0.1,0-0.1,0-0.1c0,0,0-0.1,0-0.1c0,0-0.1,0-0.1,0
			c-0.1,0-0.2,0.1-0.2,0.2c-0.1,0.1-0.1,0.1,0,0.2c0.1,0,0.2,0,0.3,0c-0.1,0.1-0.2,0.1-0.2,0.2c-0.1,0.1-0.1,0.1,0,0.2
			c0,0,0.1,0.1,0.1,0.2c0,0,0,0.1,0,0.1c-0.1,0.1,0,0.1,0,0.1c0,0-0.1,0.1,0,0.1c0,0,0,0.1,0,0.1c-0.1,0.2-0.2,0.4-0.3,0.5
			c-0.1,0.1-0.2,0.1-0.3,0.1c-0.1,0-0.3,0.1-0.4,0.2c0,0,0,0-0.1,0c-0.1-0.1-0.2,0.1-0.3,0.1c-0.1,0.1-0.1,0.1,0,0.2
			c0.1,0.2,0.2,0.4,0.2,0.6c0,0.1,0,0.1-0.1,0.2c-0.1,0.1-0.2,0.2-0.3,0.2c0-0.2-0.1-0.2-0.2-0.3c0-0.1-0.1,0-0.2-0.1
			c-0.1,0-0.1,0-0.1,0.1c-0.1,0.2,0,0.4,0.2,0.5c0.1,0.1,0.2,0.3,0.2,0.4c0,0,0,0.1,0,0.1c0,0-0.1,0-0.1,0c-0.1-0.1-0.2-0.2-0.2-0.3
			c0-0.1,0-0.1-0.1-0.2c-0.1-0.1-0.1-0.2,0-0.3c0-0.2-0.1-0.5-0.1-0.7c0,0,0-0.1-0.1,0c0,0,0,0-0.1,0.1c-0.1,0.1-0.1,0-0.1-0.1
			c0-0.2-0.2-0.4-0.2-0.5c0,0,0,0-0.1,0c0,0-0.1,0-0.1,0c-0.2,0-0.3,0.1-0.4,0.2c-0.1,0.1-0.2,0.2-0.3,0.3c-0.1,0.1-0.1,0.2-0.1,0.3
			c0,0.2,0,0.4-0.2,0.6c-0.2-0.5-0.5-0.9-0.4-1.4c-0.1,0-0.1,0.1-0.1,0.1c0,0-0.1,0-0.1,0c0,0-0.1-0.1,0-0.1c0.1,0,0-0.1,0-0.1
			c-0.1,0-0.2-0.1-0.3-0.2c0,0-0.1,0-0.2-0.1c-0.2,0-0.3,0-0.5,0c0,0-0.1,0-0.1,0c-0.1-0.1-0.2-0.1-0.3-0.1c-0.1,0-0.2-0.1-0.3-0.2
			c0-0.1-0.1-0.1-0.1-0.1c0,0-0.1,0-0.1,0c0,0,0,0.1,0,0.1c0.1,0.2,0.2,0.3,0.3,0.5c0,0.1,0.1,0.1,0.1,0c0.1,0,0.2-0.1,0.3-0.2
			c0,0.2,0.1,0.2,0.2,0.3c0.1,0,0.1,0.1,0,0.1c-0.1,0.3-0.4,0.5-0.7,0.6c-0.2,0.1-0.3,0.2-0.5,0.2c-0.1,0.1-0.2,0-0.2-0.1
			c0-0.2-0.1-0.4-0.2-0.5c-0.1-0.1-0.1-0.2-0.1-0.3c0-0.1,0-0.2-0.1-0.2c0,0,0-0.1-0.1-0.1c0-0.1-0.1-0.2-0.2-0.3c0,0,0,0,0,0
			c-0.1,0-0.1,0-0.2,0c0,0,0,0,0,0.1c0,0,0,0.1,0.1,0.1c0.1,0.2,0.2,0.3,0.3,0.5c0,0,0,0.1,0,0.1c0,0.2,0.1,0.4,0.3,0.6
			c0.1,0.1,0.2,0.3,0.3,0.4c0.1,0.1,0.2,0.1,0.3,0.1c0.1,0,0.3-0.1,0.4-0.1C45,15.9,45,16,45,16.1c-0.1,0.3-0.3,0.6-0.6,0.8
			c-0.2,0.1-0.3,0.3-0.3,0.5c-0.1,0.2,0,0.3,0,0.5c0,0.1,0,0.2,0.1,0.2c0,0.3,0,0.5-0.3,0.6c0,0-0.1,0.1-0.1,0.1
			c-0.1,0.1-0.1,0.1-0.1,0.3c0.1,0.1,0.1,0.3-0.1,0.4c-0.1,0-0.1,0.1-0.1,0.2c0,0.3-0.2,0.5-0.4,0.7c-0.1,0.1-0.1,0.1-0.2,0.1
			c-0.2,0-0.3,0.1-0.5,0.1c-0.1,0-0.1,0-0.2-0.1c0,0,0,0,0-0.1c0.1-0.1,0-0.2,0-0.2c-0.1-0.2-0.2-0.4-0.3-0.6
			c-0.1-0.3-0.1-0.6-0.2-0.8c-0.1-0.1,0-0.3,0.1-0.4c0.1-0.2,0.1-0.4,0-0.7c-0.1-0.1-0.1-0.3-0.2-0.4c0,0,0-0.1,0-0.1
			c0-0.1,0-0.3,0-0.4c0-0.1,0-0.2-0.2-0.1c-0.1,0-0.1,0-0.2-0.1c-0.1-0.1-0.2-0.1-0.3-0.1c-0.3,0.1-0.5,0.1-0.8,0.1
			c-0.2,0-0.5-0.2-0.5-0.4c0-0.1,0-0.1-0.1-0.2c-0.1-0.1-0.2-0.2-0.2-0.4c0,0,0-0.1,0-0.1c0.1-0.2,0.1-0.4,0.1-0.6
			c0-0.1,0-0.3,0.1-0.4c0.1-0.1,0.2-0.3,0.4-0.4c0.1-0.1,0.1-0.2,0.1-0.3c0-0.1,0-0.2,0.1-0.2c0.1-0.1,0.1-0.1,0.2-0.2
			c0,0,0-0.1,0.1,0c0,0,0.1,0,0.1,0c0.1,0,0.1,0,0.2,0c0.3-0.1,0.6-0.2,0.9-0.2c0.2,0,0.2,0.1,0.2,0.2c0,0.1,0,0.2,0.1,0.2
			c0.2,0.1,0.3,0.2,0.5,0.2c0.2,0.1,0.2,0.1,0.3-0.1c0-0.1,0.1-0.1,0.2-0.1c0.1,0,0.2,0.1,0.3,0.1c0.1,0,0.2,0.1,0.3,0
			c0.1,0,0.1,0,0.2,0c0.1,0,0.2,0,0.2-0.1c0.1-0.2,0.1-0.3,0.2-0.5c0-0.1,0-0.1-0.1-0.1c-0.1,0-0.2,0-0.2,0c0,0-0.1,0-0.1,0
			c-0.1,0-0.2,0-0.2-0.1C43,13,43,12.9,43,12.8c0,0,0,0,0,0c0.2-0.1,0.3-0.2,0.5-0.2c0.1,0,0.1,0,0.2,0c0.1,0,0.2,0.1,0.4,0.1
			c0.1,0,0.1,0,0.1-0.1c0-0.1,0-0.1,0-0.1c-0.1-0.1-0.1-0.1-0.2-0.2c-0.1,0-0.1-0.1,0-0.2c0,0,0-0.1,0-0.1c0,0-0.1,0-0.1,0
			c-0.1,0-0.1,0-0.2,0.1c0,0-0.1,0,0,0.1c0,0,0.1,0,0,0.1c0,0-0.1,0-0.1,0c0,0-0.1,0-0.1-0.1c0-0.1-0.1-0.2-0.2-0.1
			c-0.2,0.1-0.3,0.3-0.3,0.5c0,0.1,0,0.2-0.1,0.1c-0.1,0-0.2,0-0.3,0.1c-0.1,0,0,0.1,0,0.1c0.1,0.1,0.1,0.1,0,0.2c0,0-0.1,0.1-0.1,0
			c0,0,0-0.1,0-0.1c0,0,0.1,0,0.1-0.1c0,0,0-0.1-0.1,0c0,0,0.1,0,0,0.1c0,0,0,0-0.1,0c-0.1-0.1-0.1-0.2-0.2-0.3
			c0-0.1-0.1-0.2-0.2-0.2c-0.1-0.1-0.2-0.2-0.3-0.3c0,0,0-0.1-0.1,0c0,0-0.1,0.1,0,0.1c0.1,0.2,0.2,0.3,0.4,0.4c0,0,0.1,0,0.1,0.1
			c0,0-0.1-0.1-0.1,0c0,0.1,0,0.1,0,0.2c0-0.2-0.1-0.2-0.2-0.3c-0.1-0.1-0.2-0.2-0.3-0.3c-0.1-0.1-0.2-0.1-0.3-0.1
			c-0.1,0-0.1,0-0.2,0c-0.1,0-0.2,0-0.2,0.1c0,0.1-0.1,0.1-0.2,0.2c-0.1,0-0.1,0.1-0.1,0.2c0,0.1-0.1,0.1-0.2,0.2
			c-0.1,0-0.2,0.1-0.2,0.1c0,0,0,0,0,0c-0.1,0-0.2-0.1-0.2-0.1c-0.1-0.1-0.1-0.2,0-0.2c0-0.1,0-0.2,0-0.3c0-0.1,0-0.1,0.1-0.1
			c0.1,0,0.2,0,0.4,0c0.1,0,0.2-0.1,0.2-0.2c0-0.2-0.1-0.3-0.2-0.4c0,0-0.1,0-0.1-0.1c0,0,0.1,0,0.1,0c0.1,0,0.1,0,0.1-0.1
			c0,0,0,0,0,0c0.2,0,0.3-0.2,0.4-0.3c0,0,0.1,0,0.1-0.1c0-0.2,0.2-0.2,0.3-0.2c0.1,0,0.1,0,0.1-0.1c0-0.1,0-0.1,0-0.2
			c0,0,0-0.1,0.1-0.1c0.1,0,0,0.1,0,0.1c0,0.1,0,0.1,0,0.2c0,0,0.1,0.1,0.1,0c0.1,0,0.1-0.1,0.2,0.1c0,0,0.1,0,0.1,0
			c0.1,0,0.1-0.1,0.2-0.1c0,0,0.1,0,0.1,0c0.2,0,0.3,0,0.3-0.2c0,0,0-0.1,0-0.1c0,0,0.1,0,0.1,0c0,0,0,0,0.1,0c0,0,0-0.1,0-0.1
			c0,0,0-0.1,0-0.1c-0.1-0.1,0-0.1,0.1-0.1c0.1,0,0.2,0,0.3,0c0,0,0.1,0,0.1,0c0,0,0,0-0.1-0.1c-0.1,0-0.2,0-0.3,0c0,0-0.1,0-0.1,0
			c-0.1,0-0.2,0.1-0.2,0c-0.1-0.1-0.1-0.3,0-0.3c0.1-0.1,0.1-0.1,0.2-0.2c0,0,0.1-0.1,0-0.1c0-0.1-0.1-0.1-0.2,0
			c-0.1,0-0.1,0.1-0.1,0.2c0,0.1-0.1,0.1-0.1,0.2c-0.1,0.1-0.2,0.1-0.2,0.3c0,0.1,0,0.1,0.1,0.2c0.1,0.1,0,0.1,0,0.2
			c-0.1,0.1-0.1,0.1-0.1,0.2c0,0.1,0,0.1-0.1,0.1c0,0,0,0-0.1,0c-0.1,0-0.2,0-0.2-0.1c0,0,0-0.1,0-0.1c0-0.1,0-0.2-0.1-0.2
			c-0.1,0-0.1,0.1-0.2,0.1c-0.1,0.1-0.2,0-0.2-0.1c0-0.2,0-0.3,0.2-0.4c0.1,0,0.1-0.1,0.2,0c0,0,0.1,0,0.1,0c0-0.1,0-0.1,0-0.2
			c-0.1-0.1,0-0.1,0-0.1c0,0,0.1,0,0.1,0c0-0.1,0.1-0.1,0.2-0.2c0.1-0.1,0.1-0.1,0.2-0.2c0,0,0-0.1,0-0.1c0.1,0,0.2,0,0.3-0.1
			c0.1,0,0.2-0.1,0.3-0.1c0,0,0,0,0.1-0.1c0,0,0.1,0,0.2,0c0,0,0,0,0.1,0c0.1,0,0.2,0,0.3,0.1c0,0-0.1,0-0.1,0.1c0,0,0.1,0,0.1,0
			c0.3,0,0.6,0.2,0.8,0.3c0.1,0,0.1,0.1,0,0.1c-0.1,0.1-0.2,0.1-0.4,0c0,0-0.1,0-0.1,0c-0.1,0-0.1-0.1-0.2,0c0,0,0,0.1,0.1,0.1
			c0,0,0,0.1,0.1,0.1c0,0.1,0.1,0.1,0.1,0.1c0.1,0,0.1,0.1,0.2,0c0.1-0.1-0.1-0.1-0.1-0.1c0,0,0.1,0,0.1,0c0.1,0,0.2,0.1,0.2-0.1
			c0-0.1,0.1-0.1,0.2-0.1c0.1,0,0.2,0,0.1-0.2c0-0.1-0.1-0.1,0-0.2c0.1,0,0.1,0,0.2,0.1c0,0,0,0,0,0c0,0.1-0.1,0-0.1,0.1
			c0.1,0.1,0.1,0.1,0.2,0c0.1-0.1,0.3-0.2,0.5-0.2c0,0,0.1,0,0.1,0c0,0.1,0.1,0.1,0.2,0c0.1,0,0.2-0.1,0.2-0.1c0,0,0,0.1,0,0.1
			c0,0,0.1,0,0.1,0C46,9,46.1,9,46.2,9c0.1,0,0.2,0,0.3,0.1c0,0,0,0,0.1,0c0,0,0.1,0,0.1,0c0,0,0-0.1,0-0.1c0,0-0.1-0.1-0.1-0.1
			c0-0.1-0.1-0.1,0-0.1c0.1,0,0.1-0.1,0.1-0.2c0-0.1,0.1-0.1,0.2-0.1c0.1,0,0.1,0.1,0,0.2c0,0,0,0.1,0,0.1c0.1,0.2,0,0.4,0,0.5
			c0,0.1-0.1,0.1-0.1,0c0,0-0.1,0-0.1,0c0,0,0,0,0,0.1c0.1,0.1,0.2,0.1,0.3,0c0.1-0.1,0.1-0.2,0.2-0.2c0,0,0-0.1,0.1-0.1
			c0.1,0,0.1,0.1,0.1,0.1c0,0.1,0,0.1,0.1,0.1c0,0,0.1,0,0.1,0c0,0,0,0,0-0.1c0,0,0,0,0-0.1c0-0.1-0.1-0.2-0.2-0.2
			c-0.1,0-0.1,0-0.1-0.1c0-0.1,0-0.2,0.1-0.3c0,0.1,0.1,0.2,0.2,0.2c0,0,0.1,0,0.1,0c0,0,0-0.1,0-0.1c0,0-0.1-0.1-0.1-0.1
			c0.1,0,0.3,0,0.4,0c0.1,0,0.1,0.1,0.1,0.2c0,0,0,0.1,0.1,0.1c0.1,0,0.1,0,0.1-0.1c0-0.1-0.1-0.2-0.2-0.2c-0.1,0-0.1-0.1-0.1-0.1
			c0-0.1,0.1-0.1,0.1-0.1c0.1,0,0.2,0,0.3,0c0,0,0.1,0,0.1,0c0,0,0-0.1,0-0.1c-0.1-0.1,0-0.1,0.1-0.1c0.3,0,0.5-0.1,0.8-0.1
			c0,0,0.1,0,0.1,0C49.2,8,49.3,8,49.4,8c0,0,0.1,0,0.1,0c0-0.2,0.1-0.3,0.3-0.2c0,0-0.1,0-0.1,0.1C49.8,7.9,50,8,50.1,7.9
			c0.1,0,0.2,0,0.3,0.1c0,0.2-0.1,0.2-0.2,0.2c-0.1,0-0.2,0.1-0.4,0.2c0,0,0,0,0,0c0,0,0,0,0.1,0c0.1,0,0.2,0,0.4-0.1
			c0,0-0.1-0.1-0.1-0.1c0,0,0.1,0,0.1,0c0,0-0.1,0-0.1-0.1c0.2-0.1,0.2-0.1,0.2,0.1c0,0.1,0.1,0.1,0.1,0.1c0.1,0,0.2,0,0.4,0
			c0.1,0.1,0.3,0.1,0.4,0c0.1,0,0.2-0.1,0.3,0c0.1,0,0.1,0,0.1,0.1c0,0-0.1,0-0.1,0.1c0,0,0,0.1,0.1,0.1c0,0,0.1,0.1,0.1,0.1
			c0.1,0.1,0.1,0.1,0.2,0c0,0,0,0,0,0c0.1,0.1,0.2,0,0.4,0c0.1,0.1,0.2,0,0.3-0.1c0-0.1,0-0.1,0.1-0.1c0.1,0,0.2,0,0.2,0
			c0.1,0,0.1,0,0.1,0.1c0.1,0,0.1,0,0.2-0.1c0.1,0,0.2-0.1,0.2,0.1c0,0.1,0.2,0.1,0.3,0.1c0.1,0,0.3,0,0.4,0c0.1,0,0.1,0,0.1,0.1
			C54.4,9,54.5,9,54.5,9c0.1,0,0.2,0,0.3,0c0.1,0,0.2,0,0.3,0.1c0.1,0.1,0.2,0,0.1-0.1c0,0,0,0,0-0.1C55.7,9,56,9,56.4,9.2
			c0.1,0.1,0.2,0.1,0.2,0.2c0,0,0,0,0,0c0,0,0,0,0,0c0-0.1,0.1-0.1,0.1,0C56.9,9.4,56.9,9.4,57,9.5L57,9.5L57,9.5z M45.2,12.6
			c0-0.1-0.1-0.2-0.1-0.3c0-0.1,0-0.2,0.1-0.2c0.1,0,0.1,0,0.1-0.1c0-0.1,0-0.1-0.1-0.1c-0.1,0-0.2,0-0.3,0.1
			c-0.1,0-0.1,0.1-0.1,0.2c0,0.1,0,0.2,0.1,0.3c0.1,0.1,0.1,0.2,0,0.3c0,0.1-0.1,0.1,0,0.2c0.1,0.1,0.2,0.1,0.3,0.1
			c0,0,0.1,0,0.1-0.1c0-0.1,0-0.2-0.1-0.3C45.2,12.7,45.2,12.7,45.2,12.6c0.1,0,0.1,0,0.2,0C45.3,12.5,45.3,12.6,45.2,12.6
			L45.2,12.6z M43.5,10.3c0-0.1-0.1-0.2-0.2-0.2c0,0,0,0,0,0.1C43.3,10.3,43.4,10.3,43.5,10.3L43.5,10.3z M45.9,12.2
			C45.9,12.1,45.9,12.1,45.9,12.2c-0.1-0.1-0.1,0-0.1,0.1c0,0,0,0.1,0.1,0.1C45.9,12.3,45.9,12.2,45.9,12.2L45.9,12.2z"/>
		<path class="st1" d="M35.7,11.1c-0.1,0-0.1,0-0.2,0.1c0,0,0,0,0,0.1c0,0,0,0,0.1,0c0.1,0,0.1,0,0.2,0c0.1,0,0.1,0,0.1,0.1
			c0,0.1,0,0.2-0.1,0.2c-0.2,0.1-0.4,0.1-0.6,0.1c-0.2,0-0.4,0.1-0.5,0.3c0,0-0.1,0.1,0,0.1c0,0,0.1,0,0.1,0
			c0.1-0.1,0.2-0.1,0.3-0.1c0,0,0.1,0,0.1,0c0,0.1,0,0.1-0.1,0.1c-0.1,0-0.1,0.1,0,0.1c0,0.1,0.1,0.1,0.2,0.1c0,0,0,0,0,0
			c0.1,0.2,0.1,0.1,0.2,0c0,0,0.1-0.1,0.1,0c0,0,0,0,0,0c-0.1,0.1-0.3,0.2-0.4,0.3c0-0.1,0.1-0.2,0.2-0.2c0,0-0.1,0-0.1,0
			c-0.1,0.1-0.3,0.1-0.4,0.2c-0.1,0-0.1,0.1-0.1,0.2c0,0.1,0,0.1,0,0.1c-0.2,0-0.3,0.2-0.3,0.3c0,0,0,0,0,0c0,0,0-0.1-0.1-0.1
			c0,0,0,0.1,0,0.1c0,0.1,0.1,0.2,0,0.3c-0.1,0.1-0.2,0.2-0.3,0.3c-0.1,0.1-0.1,0.2-0.1,0.4c0,0.1,0.1,0.2,0.1,0.3c0,0,0,0.1,0,0.1
			c0,0-0.1,0-0.1,0c-0.1-0.1-0.1-0.1-0.1-0.2c-0.1-0.2-0.3-0.4-0.5-0.3C33,13.9,33,13.9,33,14c-0.1,0-0.2,0-0.3-0.1
			c-0.2,0-0.4,0.1-0.4,0.3c0,0.1-0.1,0.3,0,0.4c0,0.1,0,0.2,0.1,0.3c0.1,0.2,0.2,0.2,0.4,0.2c0.1,0,0.1-0.1,0.1-0.1c0,0,0-0.1,0-0.1
			c0.1-0.1,0.2-0.1,0.2-0.1c0.1,0,0,0.1,0,0.2c0,0.1-0.1,0.2-0.1,0.3c0,0.1,0,0.1,0.1,0.1c0.4,0,0.3,0,0.3,0.4c0,0.1,0,0.2,0.1,0.3
			c0,0,0.1,0,0.1,0c0.1,0,0.2,0,0.3,0.1c0,0,0.1,0.1,0.1,0c0-0.2,0.3-0.2,0.4-0.4c0,0.1-0.1,0.1-0.1,0.2c0,0.1,0,0.1,0.1,0.1
			c0.1,0,0.1-0.1,0-0.1c0-0.1,0-0.1,0.1-0.1c0.1-0.1,0.1,0,0.1,0c0.1,0,0.3,0.1,0.5,0.1c0.1,0,0.1,0,0.2,0.1
			c0.1,0.1,0.2,0.3,0.4,0.4c0,0,0.1,0,0.1,0c0.2,0,0.3,0.1,0.4,0.3c0.1,0.2,0,0.2-0.1,0.3c0,0-0.1,0.1-0.1,0.2
			c0.1,0,0.1-0.1,0.2-0.1c0,0,0.1-0.1,0.1,0c0,0,0,0.1,0,0.1c0,0,0,0,0,0c0,0-0.1,0-0.1,0.1c0,0,0.1,0,0.1,0c0.1,0,0.1-0.1,0.1-0.1
			c0.1-0.1,0.1-0.1,0.2,0c0.1,0.2,0.3,0.2,0.5,0.2c0.2,0,0.3,0.1,0.4,0.3c0.1,0.1,0,0.2-0.1,0.4c0,0.1-0.1,0.2-0.2,0.2
			c-0.1,0.1-0.1,0.1-0.1,0.2c0,0.3,0,0.5-0.1,0.7c0,0.1-0.1,0.1-0.2,0.1c-0.2,0-0.4,0.2-0.5,0.3c0,0,0,0.1,0,0.1c0,0.1,0,0.2,0,0.3
			c-0.1,0.1-0.1,0.3-0.2,0.4c0,0.1-0.1,0.1-0.1,0.2c-0.1,0.1-0.2,0.1-0.3,0c0,0-0.1,0-0.1,0c0,0.1,0.1,0.1,0.1,0.2
			c0.1,0.1,0,0.2-0.1,0.3c0,0-0.1,0-0.2,0c-0.1,0-0.2,0-0.2,0.2c0,0.1-0.1,0.1-0.1,0.1c-0.1,0-0.1,0-0.1,0.1c0,0,0,0,0,0.1
			c-0.1,0.1-0.1,0.2-0.2,0.3c0,0.1,0,0.2,0.1,0.2c0.1,0,0.1,0.1,0,0.1c-0.1,0.1-0.2,0.3-0.3,0.4c0,0.1-0.1,0.1-0.2,0.2
			c0-0.1-0.1-0.2-0.2-0.2c-0.1,0-0.1,0,0-0.1c0-0.1,0-0.2,0-0.2c0,0,0-0.1,0.1-0.1c0,0,0,0,0-0.1c0-0.1-0.1-0.1-0.2-0.2
			c-0.1,0,0-0.1,0-0.1c0,0,0,0,0.1,0c0.1,0.1,0.1,0,0.1,0c0-0.1,0-0.3,0-0.4c0-0.1,0-0.1,0-0.2c0-0.1,0-0.2,0-0.2c0-0.1,0-0.1,0-0.2
			c0.1-0.2,0.2-0.5,0.2-0.7c0-0.4,0-0.7,0.1-1.1c0-0.1,0-0.1-0.1-0.1c-0.1-0.1-0.2-0.2-0.3-0.2c-0.1-0.1-0.2-0.2-0.2-0.3
			c-0.1-0.3-0.2-0.5-0.3-0.8c0-0.1,0-0.1,0-0.1c0,0,0.1-0.1,0-0.1c-0.1,0,0-0.1,0-0.2c0-0.1,0.1-0.3,0.2-0.4c0.1-0.2,0.1-0.4,0-0.6
			c-0.1-0.1-0.1-0.1-0.2,0c-0.1,0-0.3,0-0.3-0.1c0,0,0-0.1-0.1,0c0,0,0,0,0,0c0-0.2-0.1-0.3-0.3-0.3c-0.2,0-0.3-0.1-0.4-0.2
			c-0.1,0-0.1-0.1-0.2,0c0,0-0.1,0-0.1,0c-0.2-0.1-0.4-0.2-0.6-0.3c-0.1,0-0.1-0.1-0.1-0.2c0-0.1,0-0.1-0.1-0.2
			c-0.2-0.3-0.4-0.5-0.5-0.8c0,0-0.1-0.1-0.1-0.1c-0.1,0,0,0.1,0,0.1c0.1,0.3,0.2,0.5,0.4,0.7c-0.1,0-0.2-0.1-0.2-0.2
			c0,0,0-0.1,0-0.1c-0.2-0.2-0.2-0.5-0.4-0.7c0-0.1-0.1-0.1-0.2-0.2c0,0-0.1-0.1-0.1-0.1C30.2,13,30,12.8,30,12.4c0-0.1,0-0.3,0-0.4
			c0,0,0-0.1,0.1-0.1c0,0,0,0,0.1,0c0,0,0-0.1,0-0.1c-0.1-0.1-0.2-0.3-0.4-0.3c-0.1,0-0.1,0-0.1-0.1c0,0,0,0,0,0
			c-0.1,0-0.1-0.1-0.2-0.2c0,0-0.1-0.1-0.1-0.1c0-0.1,0-0.2-0.2-0.3c-0.1,0-0.2-0.1-0.2-0.2c0-0.1-0.1-0.1-0.2-0.1c0,0,0,0,0,0
			c-0.2-0.1-0.5-0.2-0.7-0.2c-0.1,0-0.1,0-0.1-0.1c-0.1-0.1-0.2,0-0.2,0.1c0,0,0,0.1-0.1,0.1c0,0-0.1,0.1-0.1,0c0,0,0-0.1,0-0.1
			c0,0,0.1,0,0-0.1c0,0-0.1,0-0.1,0c-0.1,0.1-0.1,0.1-0.1,0.2c0,0.1-0.1,0.1-0.1,0.2c-0.2,0.2-0.4,0.3-0.7,0.4
			c0.1-0.1,0.2-0.1,0.3-0.2c0.1,0,0.1-0.1,0.2-0.2c0-0.1,0-0.1-0.1-0.1c-0.1,0-0.1,0-0.2,0c-0.1,0-0.2-0.1-0.4-0.2
			c-0.1,0-0.1-0.1-0.1-0.2c0-0.1,0.1-0.1,0.2-0.2c0.1,0,0.2-0.1,0.2-0.2c0-0.1,0-0.1-0.1-0.1c-0.1,0.1-0.2,0.1-0.2,0
			c-0.1,0-0.1,0-0.1-0.1c0,0-0.1,0-0.1-0.1c0.1-0.1,0.2-0.1,0.4,0c0,0,0.1,0,0.1,0c0,0,0.1,0,0.1-0.1c0,0,0,0-0.1,0
			c-0.1,0-0.3-0.1-0.4-0.3c0.3-0.1,0.5-0.3,0.8-0.4c0.2,0,0.3,0,0.5,0.1c0,0,0,0,0.1,0c0.2,0,0.4,0,0.6,0.1c0.2,0,0.4,0.1,0.7,0.2
			c0,0,0,0,0,0.1c0,0,0,0.1,0,0.1c0,0,0,0.1,0.1,0.1c0,0,0-0.1,0-0.1c0-0.1,0-0.1-0.1-0.2c0.1,0,0.2-0.1,0.3-0.1
			c-0.1,0-0.1,0.1-0.2,0.1c0,0,0,0,0,0.1c0,0,0,0,0.1,0C29.4,9.1,29.5,9,29.6,9c0.1-0.1,0.2-0.1,0.3,0c0,0,0.1,0,0.1,0
			c0.1,0,0.3,0,0.4,0.1c0.1,0,0.1,0.1,0.2,0c0,0,0.1,0,0.1,0c0,0,0,0.1,0,0.1c0,0.1,0,0.1,0.1,0.1c0.1,0,0.1,0,0.2,0
			c0.1,0,0.2,0,0.3,0.1c0,0,0,0.1,0.1,0c0,0,0,0,0-0.1c0-0.1,0-0.1,0.1-0.1c0,0,0,0,0-0.1c0,0,0,0,0,0c0,0-0.1,0-0.1,0
			c0.1-0.1,0.2-0.1,0.3,0c0.2,0.1,0.3,0.1,0.5,0.1c0.1,0,0.2-0.1,0.3,0c0.1,0,0.1-0.1,0.2-0.2c0-0.1,0-0.1-0.1-0.1
			c-0.1,0-0.1-0.1-0.1-0.1c0-0.1,0.1-0.1,0.1-0.1c0.1,0,0.2,0.1,0.2,0.2c0,0.1,0,0.1,0,0.1c0,0,0.1,0,0.1,0.1c0,0.1,0.1,0.1,0.1,0
			c0,0,0-0.1,0.1-0.1c0.1,0,0.1,0.1,0.1,0.1c0,0.1,0,0.2,0.1,0.2c0.1,0,0.1-0.1,0.1-0.2c0,0,0,0,0,0c0-0.1,0-0.1,0.1-0.1
			c0.1,0,0.2,0.1,0.2,0.1c0,0,0,0.1,0,0.1c0.1,0.1,0,0.1-0.1,0.2c-0.1,0-0.1,0.1-0.2,0.1c0,0-0.1,0-0.1,0c0,0,0,0,0,0.1
			c0,0.1,0.1,0.1,0.2,0.1c0.1,0,0.2,0.1,0.2,0.1c0,0,0,0,0,0.1c0,0,0,0-0.1,0c-0.1-0.1-0.2-0.1-0.2,0c0,0.1-0.1,0-0.2,0
			c-0.1,0,0-0.1,0-0.1c0-0.1,0-0.2,0-0.2c-0.1-0.1-0.2,0-0.3,0c0,0,0.1,0,0.1,0.1c0,0,0.1,0,0.1,0.1c0,0,0,0.1-0.1,0.1c0,0,0,0,0,0
			c-0.3,0-0.4,0.3-0.5,0.5c-0.1,0.1,0,0.2,0.1,0.2c0,0,0.1,0,0.1,0.1c0,0.1,0,0.1,0.1,0.1c0.1,0,0.1,0,0.1,0.1
			c0.1,0.1,0.3,0.2,0.5,0.2c0.1,0,0.1,0,0.1,0.1c0,0.2,0.1,0.3,0.2,0.4c0.1,0.1,0.1,0,0.2,0c0-0.1,0-0.1,0-0.2c0-0.1,0-0.2,0.1-0.3
			c0.1-0.1,0.1-0.2,0-0.3c0-0.1-0.1-0.1,0-0.2c0-0.1,0-0.1,0-0.2c0-0.1,0.1-0.2,0.2-0.2c0.1,0,0.2,0,0.3,0.1c0,0,0.1,0.1,0.1,0.1
			c0,0,0.1,0.1,0,0.1c-0.1,0.1,0,0.2,0.1,0.2c0.1,0,0.2,0,0.3,0c0,0,0.1-0.1,0.1-0.1c0,0,0.1,0,0.1,0c0,0.2,0.1,0.3,0.2,0.4
			C35.4,10.9,35.5,10.9,35.7,11.1C35.6,11,35.7,11,35.7,11.1L35.7,11.1z M32.9,12c0.2,0,0.4,0,0.5,0.1c-0.2,0.1-0.2,0.2-0.2,0.5
			c0,0,0-0.1,0-0.1c0-0.1,0-0.2,0.1-0.3c0-0.1,0.2-0.1,0.2,0c0,0.1,0.1,0.1,0.1,0.2c0-0.1,0-0.1,0.1-0.1c0.1-0.1,0-0.1,0-0.1
			c-0.2,0-0.3-0.1-0.3-0.2c-0.1-0.1-0.2-0.1-0.3,0C33,11.9,32.9,11.9,32.9,12z M33.6,12.6c0.2-0.1,0.3-0.2,0.5-0.3
			C33.9,12.4,33.8,12.5,33.6,12.6z"/>
		<path class="st1" d="M36.1,9.4c0-0.1,0.1-0.1,0.2-0.1c-0.1-0.1-0.1-0.1,0-0.2c0,0,0-0.1,0-0.1c-0.1-0.1-0.1-0.1-0.2-0.1
			c0.1,0,0.2-0.1,0.1-0.2c0,0,0-0.1-0.1-0.1c-0.1,0,0,0.1-0.1,0.1c0,0,0,0,0,0c0-0.2-0.1-0.3-0.2-0.5C35.7,8,35.5,8,35.3,8
			c-0.1,0-0.2,0-0.3,0c-0.1,0-0.2,0-0.2-0.1c0,0,0,0-0.1,0c0.1,0,0.1,0,0.2,0c0,0,0.1,0,0.1-0.1c0-0.1-0.1,0-0.1-0.1
			c-0.1,0-0.2,0-0.2,0c0,0,0,0-0.1,0c0,0,0.1-0.1,0.1-0.1c0.1,0,0.2-0.1,0.3-0.1c0.1,0,0.2-0.1,0.2-0.2c0-0.1,0-0.1-0.1-0.1
			c-0.1,0-0.1,0-0.2,0c0.1-0.1,0.3-0.1,0.4-0.2c0.1,0,0.1,0,0.1-0.1C35.5,7,35.5,7,35.6,7c0.1,0,0.2,0,0.3,0c0,0,0.1,0,0.1,0
			c0,0,0.1,0,0.1,0c0,0,0.1,0.1,0.1,0c0-0.1,0.1-0.1,0.2-0.1c0.1,0,0.2,0,0.3,0c0,0,0.1,0,0.1-0.1c0-0.1,0-0.1-0.1-0.1
			c0,0-0.1,0-0.1,0c0,0,0,0-0.1,0c0,0,0-0.1,0-0.1c0,0,0,0,0.1,0c0.1,0.1,0.3,0,0.4,0c0.1,0,0.1,0.1,0.2,0c0,0,0,0,0.1,0
			c0.2,0,0.3,0,0.5,0c0,0,0,0,0,0c0,0-0.1,0-0.1,0.1c0,0,0,0,0,0c0,0,0,0,0.1,0c0.2,0,0.3,0,0.5-0.1c0.1,0,0.2,0,0.3,0
			c-0.1,0.1,0,0.1,0.1,0.1c0.1,0,0.2,0,0.3,0c-0.1,0.1-0.2,0.1-0.3,0.1c-0.3,0-0.5,0.1-0.7,0.2c0,0-0.1,0,0,0.1c0,0,0,0,0.1,0
			c0.1,0,0.2-0.1,0.3-0.1C38.3,7,38.5,7,38.7,7c0,0,0.1,0,0.1,0c0,0.2,0.1,0.1,0.2,0c0,0,0.1,0,0.1,0c0.1,0,0.1,0,0.2,0
			c0.1,0,0.2,0,0.4,0c0,0,0,0,0,0c-0.2,0-0.3,0.2-0.5,0.2c0,0-0.1,0-0.1,0.1c0,0.1,0.1,0,0.1,0c-0.1,0.1-0.1,0.2-0.2,0.2
			c-0.1,0,0,0.2,0.1,0.2c0,0,0.1,0,0.1,0c-0.1,0-0.1,0-0.2,0c0,0-0.1,0-0.1,0.1c0,0.1,0.1,0,0.1,0.1c0,0,0,0,0.1,0c0,0-0.1,0-0.1,0
			c0,0-0.1,0-0.1,0c0,0,0,0,0.1,0c0.1,0,0.1,0.1,0.2,0.1c-0.1,0-0.1,0-0.2,0C38.8,8.3,39,8.3,39,8.4c-0.1,0-0.1-0.1-0.2-0.1
			c-0.1,0-0.1-0.1-0.2,0c0,0.1-0.1,0-0.1,0c0,0-0.1,0-0.1,0c0,0,0,0,0,0.1c0,0,0.1,0,0,0.1c-0.1,0.2,0.1,0.1,0.1,0.1
			c0.1,0,0.2,0,0.2,0.1c0,0,0,0.1,0,0.1c0,0-0.1,0-0.1,0c0-0.1-0.1-0.1-0.1-0.1c-0.1,0-0.1,0-0.1,0.1c0,0.1-0.1,0.1-0.1,0.1
			c0,0,0.1,0,0.1,0c0.1,0,0.1,0,0.2,0c-0.2,0.1-0.4,0.2-0.7,0.2c-0.2,0-0.3,0.1-0.4,0.1c0,0,0,0,0,0.1c0,0.1-0.1,0.2-0.2,0.2
			c-0.2,0-0.3,0.2-0.4,0.3C37,9.9,37,10,37,10.1c0,0.1-0.1,0.1-0.2,0.2c0,0,0,0,0,0c0-0.1-0.1-0.1-0.2-0.1c-0.1-0.1-0.3-0.3-0.3-0.5
			c0,0,0-0.1,0-0.1c-0.1,0-0.1-0.1-0.1-0.1c0,0,0-0.1,0.1-0.1c0,0,0.1-0.1,0-0.1C36.2,9.3,36.2,9.4,36.1,9.4L36.1,9.4z"/>
		<path class="st1" d="M53,18c0,0.2,0.1,0.3,0.2,0.4c0,0,0,0.1,0,0.2c0,0.2,0.1,0.3,0.2,0.4c0.1,0.1,0.1,0.2,0.2,0.2
			c0,0.1,0.1,0.1,0.2,0.1c0.1,0,0.1,0.1,0.1,0.2c0,0.3-0.1,0.6-0.2,0.9c0,0,0,0.1,0,0.1c0,0.1,0,0.2-0.2,0.2c0,0,0,0,0,0
			c-0.1,0.1-0.1,0.1-0.2,0c0,0-0.1,0-0.1,0c-0.1,0.1-0.2,0-0.3-0.1c0-0.1-0.1-0.2-0.1-0.3c0-0.1-0.1,0-0.1,0c0-0.1,0-0.1,0-0.2
			c0,0,0,0,0-0.1c0,0,0,0-0.1,0c0,0.1,0,0.2-0.1,0.2c0,0-0.1-0.1-0.1-0.2c-0.1-0.1-0.3-0.2-0.4-0.1c-0.2,0-0.3,0-0.5,0.2
			c0,0-0.1,0-0.1,0c-0.1,0-0.2,0-0.3,0.1c-0.1,0-0.1,0.1-0.2,0c-0.1,0-0.1-0.1-0.1-0.2c0-0.2-0.1-0.4-0.2-0.7c0,0-0.1-0.1,0-0.1
			c0,0,0.1,0.1,0.1,0c0,0,0-0.1,0-0.1c-0.1-0.2-0.1-0.2,0.1-0.3c0.1-0.1,0.2-0.1,0.4-0.2c0.1-0.1,0.3-0.1,0.2-0.4
			c0.1,0.1,0.1,0.1,0.1,0c0-0.1,0.1-0.1,0.2-0.2c0,0,0,0,0.1,0c0,0.1,0.1,0.1,0.2,0.1c0.1,0,0.1,0,0.1-0.1c0-0.1,0-0.1,0.1-0.2
			c0,0,0.1-0.1,0.1-0.1c0.1,0,0.2,0,0.3,0.1c0,0,0,0,0,0.1c0,0,0,0,0,0.1c-0.1,0.2-0.1,0.2,0.1,0.3c0,0,0.1,0.1,0.1,0.1
			c0.2,0.1,0.2,0.1,0.2-0.1c0-0.1,0.1-0.2,0.1-0.3C52.9,18.2,52.9,18.1,53,18L53,18z"/>
		<path class="st1" d="M34,7.9c-0.1,0.1-0.6,0.1-0.9,0c0-0.1,0-0.1,0.1,0c0,0,0,0,0,0c0,0,0,0,0-0.1c0,0-0.1,0,0-0.1
			c0,0,0.1-0.1,0.2,0c0,0,0,0,0.1,0c-0.1-0.1-0.1-0.1-0.2-0.1c0,0-0.1,0-0.1,0c-0.1,0.1-0.2,0.1-0.3,0.1c-0.1,0-0.1-0.1-0.1-0.1
			c0-0.1,0.1,0,0.1-0.1c0,0-0.1,0-0.2-0.1c-0.1,0-0.2,0-0.2-0.1c0-0.1,0.1-0.1,0.2-0.1c0,0,0,0,0,0c-0.1-0.1,0-0.1,0-0.1
			c0.1,0,0.2,0.1,0.4,0.1c0,0.1,0.1,0.1,0.1,0.2c0.1,0.1,0.3,0.2,0.4,0.1c0,0,0,0,0-0.1c0,0,0,0-0.1,0c-0.1,0-0.2,0-0.3-0.1
			c0,0-0.1,0-0.1-0.1c0,0,0.1,0,0.1,0c0.2,0.1,0.3,0,0.5-0.1c0,0,0.1,0,0.1-0.1c0,0,0.1,0,0-0.1c0,0-0.1,0-0.1,0c0,0-0.1,0-0.1,0.1
			c-0.2,0.1-0.3,0.1-0.5,0c0,0-0.1,0-0.1,0c-0.1,0.1-0.1,0-0.2,0C33,7,32.9,7,32.9,7c0.1,0,0.2,0,0.3-0.1c0.1-0.1,0.2-0.1,0.4-0.1
			c0,0,0,0,0,0c0-0.1,0.1-0.2,0.2-0.2c0.1,0,0.3,0,0.4,0c0.2,0,0.3,0,0.5,0c0.1,0,0.1,0,0.2,0.1c0,0,0.1,0,0.1,0c0.1,0,0.2,0,0.3,0
			c0,0,0.1,0,0.1,0.1c0,0,0,0-0.1,0.1C35.1,6.9,35,7,34.9,7c0,0-0.1,0-0.1,0.1c0,0,0,0,0,0c0.1,0,0.1,0,0.2,0c0-0.1,0.1,0,0.1,0
			c0,0.1-0.1,0.1-0.1,0.1c-0.1,0.1-0.2,0.1-0.3,0.2c-0.1,0.1-0.2,0.1-0.3,0.1c0,0-0.1,0-0.1,0c0,0-0.1,0-0.1,0c0,0-0.1,0-0.1,0.1
			c0,0,0.1,0,0.1,0c0,0,0.1,0,0.1,0c0,0,0,0.1-0.1,0.1c-0.1,0.1-0.2,0.1-0.4,0.1c0,0-0.1,0-0.1,0c0,0,0,0,0.1,0.1
			C33.8,7.9,33.9,7.9,34,7.9L34,7.9z"/>
		<path class="st1" d="M33.4,8.7c0,0,0-0.1,0-0.1C33.3,8.6,33.3,8.7,33.4,8.7c0,0.1,0,0.1,0,0.1C33.4,8.8,33.4,8.8,33.4,8.7
			c0.1,0,0.1-0.1,0.1-0.1c0-0.1,0.1-0.1,0.1-0.1c0.1,0,0.1,0,0.1,0.1c0,0,0,0.1,0.1,0.1c0.1,0,0.2,0.1,0.3,0c0-0.1,0.2-0.1,0.3,0
			c0.1,0.1,0.2,0.2,0.3,0.1c0,0.1-0.1,0.1,0,0.1c0,0,0.1,0,0.1,0c0.1,0,0.1,0,0.2,0.1c0.1,0,0.1,0.1,0,0.1c-0.1,0.1,0,0.1,0.1,0.1
			c0.2,0,0.2,0.1,0.4,0.2c0,0,0.1,0.1,0,0.1c0,0,0,0,0,0c-0.1,0.1-0.1,0.1-0.2,0c0,0-0.1-0.1-0.1-0.1c0,0-0.1,0-0.1,0.1
			c0,0,0,0.1,0,0.1C35,9.7,35,9.7,35.1,9.8c0,0.1,0.1,0.1,0,0.2c-0.1,0.1,0,0.1,0,0.1c-0.1,0-0.3-0.1-0.4-0.1
			c-0.1,0-0.1-0.1-0.2-0.1c-0.1-0.1-0.2-0.2-0.4-0.1c0,0-0.1,0-0.1,0c0-0.1,0.1-0.1,0.1-0.1c0,0,0.1,0,0.1,0c0.1,0,0.1,0,0.1-0.1
			c0,0,0.1-0.1,0.2-0.1c0,0,0.1,0,0.1,0c0,0,0.1,0,0.1,0c0,0,0,0,0-0.1c0,0-0.1,0-0.1,0c-0.1,0-0.1,0-0.1-0.1c0,0,0-0.1-0.1-0.1
			c0,0,0,0,0,0c0-0.1-0.1-0.1-0.1-0.1c-0.3-0.1-0.7-0.1-1-0.1c-0.1,0-0.2-0.1-0.2-0.3c0-0.1,0.1-0.2,0.2-0.2
			C33.3,8.4,33.4,8.5,33.4,8.7L33.4,8.7z"/>
		<path class="st1" d="M50.6,17.3c-0.3,0-0.5-0.1-0.5-0.4c0,0,0-0.1,0-0.1c0.2-0.1,0.3-0.2,0.5-0.4c0,0,0,0,0.1-0.1
			c0.1-0.1,0.2-0.1,0.3,0c0,0,0,0,0,0.1c0,0-0.1,0.1-0.1,0.1c0,0,0,0,0,0.1c0.1,0.1,0.1,0.1,0,0.2c-0.1,0.1-0.2,0.2-0.1,0.4
			C50.7,17.3,50.6,17.3,50.6,17.3z"/>
		<path class="st1" d="M30.9,8.4c0,0.1,0,0.1,0,0.1c0,0.1,0,0.1,0.1,0c0,0,0.1-0.1,0.1,0c0,0,0,0,0,0c0.1-0.1,0.2,0,0.2,0.1
			c0,0,0,0.1,0.1,0c0,0,0,0,0-0.1c0-0.1,0.1-0.1,0.2-0.2c0,0,0,0,0,0c0,0.3,0,0.4,0.3,0.5c0,0.1-0.2,0.1-0.1,0.2c-0.1,0-0.1,0-0.1,0
			c-0.1-0.1-0.3-0.1-0.4,0c-0.1,0-0.1,0-0.2,0.1c-0.1,0-0.2,0-0.3,0c-0.1,0-0.1-0.1-0.2-0.1c0.1,0,0.2,0,0.3,0c0,0,0.1,0,0.1,0
			c0,0-0.1,0-0.1,0c-0.1,0-0.2,0-0.2,0c-0.1,0-0.1,0-0.2-0.1c0-0.1,0-0.1,0.1-0.1C30.7,8.5,30.8,8.5,30.9,8.4L30.9,8.4z"/>
		<path class="st1" d="M52,17c0.1,0,0.2,0,0.3,0.2c0,0.1,0.1,0.1,0.2,0c0.1-0.1,0.1-0.1,0.2,0c0.2,0.1,0.5,0.2,0.7,0.3
			c0,0,0.1,0.1,0.1,0.1c0,0.2,0.1,0.3,0.3,0.4c-0.2,0-0.2,0-0.3-0.2c-0.1-0.1-0.2-0.1-0.3,0c-0.1,0.1-0.1,0-0.2,0
			c-0.1,0-0.1,0-0.2-0.1c0,0-0.1,0-0.1,0c0.1-0.2,0.1-0.2-0.1-0.3c-0.1-0.1-0.2-0.2-0.3-0.1c0,0-0.1,0,0-0.1
			C52.2,17.1,52.1,17.1,52,17C52,17.1,52,17.1,52,17L52,17z"/>
		<path class="st1" d="M44.9,18.2c0.1,0.1,0.1,0.3,0.1,0.4c-0.1,0.3-0.1,0.5-0.2,0.8c0,0.1-0.1,0.2-0.2,0.2c-0.1,0-0.1,0-0.1-0.1
			c-0.1-0.1-0.1-0.3,0-0.4c0-0.1,0-0.2,0-0.2c0-0.1,0-0.2,0.1-0.3C44.8,18.4,44.9,18.4,44.9,18.2z"/>
		<path class="st1" d="M51.7,13.4c0.1,0.1,0.2,0,0.2,0c0-0.1,0.1-0.1,0.2-0.1c0.1,0,0.2,0,0.2-0.1c0,0,0,0,0.1,0
			c0.1,0,0.1,0,0.1-0.1c0-0.1,0-0.1,0-0.1c0.1,0,0.1,0,0.1-0.1c0-0.1,0-0.1,0-0.2c0,0,0-0.1,0.1-0.1c0,0,0.1,0,0.1,0.1
			c0,0.1,0,0.1,0,0.2c-0.1,0.1-0.1,0.3-0.1,0.4c0,0.1,0,0.1-0.1,0.1c-0.1,0-0.2,0-0.3,0.1c0,0-0.1,0-0.1,0c0-0.1-0.1-0.1-0.1-0.1
			c0,0.1,0.1,0,0.1,0.1c0,0.1-0.1,0.1-0.1,0.1c-0.1,0-0.1,0.1-0.1,0.1c0,0,0,0.1-0.1,0.1c0,0.1-0.1,0-0.1,0
			C51.9,13.6,51.8,13.5,51.7,13.4L51.7,13.4z"/>
		<path class="st1" d="M42.8,7.8c-0.1,0-0.1,0-0.2,0c0,0-0.1,0-0.1,0c0.1-0.1-0.1-0.1-0.1-0.1c-0.1,0-0.1,0-0.1,0.1c0,0,0,0,0,0.1
			c0,0.1,0,0.2-0.1,0.2c-0.1,0-0.1-0.1-0.2-0.1c0-0.1,0.1-0.1,0.1-0.1c0-0.1-0.1,0-0.1,0c0,0,0.1,0,0.1-0.1c0,0,0,0,0-0.1
			c0,0,0,0-0.1,0c0,0-0.1,0-0.1,0c0,0-0.1,0.1-0.1,0c0,0,0,0,0,0c-0.1,0.1-0.1,0-0.1,0c0.1,0,0.1-0.1,0.1-0.1c0-0.1-0.1,0-0.1,0
			c0.1,0,0.2-0.1,0.3-0.1c0,0.1-0.1,0.1,0,0.1c0,0,0.1,0,0.1,0c0-0.1,0.1-0.1,0.2,0c0,0,0.1,0.1,0.1,0c0.1-0.1,0.1-0.1,0-0.2
			c0.1,0,0.2,0,0.3,0.1c0,0,0,0,0,0c0-0.1,0.2-0.1,0.2-0.1c0.1,0,0.1,0,0.2,0c-0.1,0.1-0.2,0.2-0.4,0.1c-0.1,0-0.2,0-0.2,0
			c0,0,0,0-0.1,0c0,0,0,0,0,0C42.5,7.6,42.7,7.6,42.8,7.8L42.8,7.8z"/>
		<path class="st1" d="M40.2,11.5c0-0.1,0.1-0.1,0.1-0.1c0,0,0.1,0,0.1-0.1c0,0,0,0-0.1,0c0,0,0,0,0,0c0-0.1,0-0.1,0.1-0.1
			c0.1,0,0.1-0.2,0-0.2c-0.2-0.1-0.2-0.2-0.1-0.4c0-0.1,0.1-0.1,0.2-0.2c0,0,0,0.1,0,0.1c0,0-0.1,0.1,0,0.1c0,0.1,0.1,0,0.1,0
			c0,0,0,0.1,0,0.1c0,0.1,0,0.1,0,0.2c0.1,0.1,0.2,0.2,0.2,0.3c0,0,0,0.1,0,0.1c0,0,0.1,0,0.1,0.1c0,0.1-0.1,0.1-0.1,0.1
			C40.5,11.5,40.4,11.5,40.2,11.5z"/>
		<path class="st1" d="M46.6,7.9C46.6,8,46.5,8,46.6,7.9C46.4,8,46.2,8.1,46,8.1c-0.3,0-0.4,0.2-0.6,0.4c-0.1,0.1,0,0.2,0.1,0.2
			c-0.1,0-0.2,0-0.3-0.1c0,0-0.1,0-0.1,0c0.1-0.2,0.1-0.2,0.3-0.2c-0.1,0-0.1,0,0-0.1c0-0.1,0.1-0.1,0.1-0.2c0,0,0,0,0.1,0
			c0.1,0,0.2,0,0.3-0.1C46,8,46,8,46.1,8c0.1,0,0.2,0,0.3-0.1C46.4,7.9,46.5,7.9,46.6,7.9L46.6,7.9z"/>
		<path class="st1" d="M48.9,16.4c0.1,0,0.2,0,0.2,0.1c0.1,0.2,0.3,0.3,0.4,0.5c0,0.1,0.1,0.1,0.2,0.1c0,0,0,0,0,0c0,0,0,0,0,0.1
			c0,0.1-0.1,0.2-0.1,0.2c0,0-0.1,0-0.1,0c-0.1-0.1-0.2-0.2-0.3-0.3c-0.1-0.2-0.2-0.4-0.3-0.5C49,16.5,48.9,16.5,48.9,16.4
			L48.9,16.4z"/>
		<path class="st1" d="M30,8.6c0.1,0,0.1-0.1,0.1-0.2c0-0.1,0.1-0.2,0.2-0.2c0.1,0,0.2,0,0.3,0c0.1,0,0.2,0.1,0.1,0.2c0,0,0,0,0,0
			c0,0,0,0-0.1,0c-0.1,0-0.2,0.1-0.3,0.2C30.3,8.7,30.2,8.7,30,8.6C30.1,8.6,30.1,8.6,30,8.6L30,8.6z"/>
		<path class="st1" d="M38.7,9.7c0.1,0,0.2,0,0.3-0.2c0,0,0,0,0.1,0c0.1,0,0.1,0,0.2,0c0.1,0,0.2,0.1,0.2,0.1c0,0,0,0.1,0,0.1
			c-0.1,0.1-0.3,0.2-0.5,0.2c-0.1,0-0.1,0-0.2-0.1C38.8,9.7,38.8,9.7,38.7,9.7L38.7,9.7z"/>
		<path class="st1" d="M33.8,8.1c0,0.1-0.1,0.1-0.2,0.1c-0.1,0-0.2,0-0.4,0c-0.2,0-0.3-0.1-0.5-0.1c0,0-0.1,0-0.1,0
			C32.8,8,32.6,8,32.5,8c0,0,0,0-0.1,0c0,0,0,0,0,0c0,0,0,0,0,0c0.1,0,0.2,0,0.3,0.1c0,0,0.1,0,0.1,0c0,0.1,0.2,0.1,0.3,0.1
			C33.4,8.1,33.6,8.1,33.8,8.1L33.8,8.1z"/>
		<path class="st1" d="M55,21.8c0.1-0.1,0.1-0.2,0.2-0.3c0.1-0.1,0.1-0.1,0.2-0.2c0-0.1,0.1-0.1,0.1-0.1c0.1,0,0,0.1,0,0.2
			c-0.1,0.1-0.2,0.2-0.2,0.4c0,0.1-0.1,0.1-0.2,0.1C55.1,21.8,55.1,21.8,55,21.8L55,21.8z"/>
		<path class="st1" d="M33.6,14.7c0,0.1,0.1,0.1,0,0.1C33.6,14.8,33.6,14.7,33.6,14.7c-0.1,0-0.2,0-0.1,0
			C33.5,14.6,33.5,14.6,33.6,14.7c0-0.1,0.1-0.1,0.1-0.1c0.2,0.1,0.3,0.1,0.5,0.2c0,0,0.1,0,0.1,0.1c0,0,0,0-0.1,0
			c-0.1,0-0.1,0-0.2-0.1C33.9,14.8,33.8,14.7,33.6,14.7L33.6,14.7z"/>
		<path class="st1" d="M35.9,11.5c0,0.1-0.1,0.1-0.1,0.1c0.1,0,0.3,0,0.2,0.2c0,0,0,0,0,0c0,0,0,0,0,0c0,0,0,0,0,0c0,0,0,0,0,0
			c-0.2,0.1-0.1,0-0.1-0.1c-0.1,0-0.1,0-0.2,0c-0.1,0-0.1,0-0.1-0.1c0-0.1,0-0.1,0-0.1C35.7,11.6,35.8,11.6,35.9,11.5L35.9,11.5z"/>
		<path class="st1" d="M53.2,12.3C53.2,12.4,53.2,12.4,53.2,12.3c-0.2,0.1-0.2,0.2-0.3,0.2c0,0,0,0,0,0c0,0.1,0,0.1-0.1,0
			c0-0.1-0.1-0.1,0-0.2c0.1,0,0.1-0.1,0.1-0.2c0-0.1,0-0.1,0.1,0C53,12.2,53,12.3,53.2,12.3C53.2,12.3,53.2,12.3,53.2,12.3
			L53.2,12.3z"/>
		<path class="st1" d="M31,8.3C31,8.2,31.1,8.2,31,8.3c0-0.2,0-0.2-0.1-0.1c0,0-0.1,0-0.1,0c0,0,0-0.1,0-0.1c0,0,0.1,0,0.1,0
			c0.1,0,0.2,0.1,0.3,0.1c0.1,0,0.2,0,0.2-0.1c0,0,0-0.1,0-0.1c0,0,0,0,0,0c0,0.1,0.1,0.1,0.2,0.1C31.4,8.2,31.2,8.2,31,8.3L31,8.3z
			"/>
		<path class="st1" d="M51.4,16.8c-0.1,0.1-0.1,0-0.2,0c0,0-0.1,0-0.1,0c0,0-0.1,0-0.1,0.1c0,0,0.1,0,0.1,0c0.1,0,0.1,0,0.2,0
			c-0.1,0-0.2,0-0.2,0.1c0,0.1,0.1,0.1,0.1,0.2c0,0,0,0,0,0.1c0,0,0,0.1,0,0.1c-0.1,0,0-0.1-0.1-0.1c0-0.1,0-0.1-0.1-0.1
			c-0.1,0,0,0.1,0,0.2c0,0.1,0,0.1,0,0.2c-0.1-0.1-0.1-0.3-0.1-0.4C51,16.8,51,16.8,51.4,16.8L51.4,16.8z"/>
		<path class="st1" d="M55.5,20.5c0.1,0.1,0.1,0.1,0.2,0.2c0,0,0,0.1,0.1,0.1c0,0,0.1,0.1,0.2,0.1c0,0,0,0.1-0.1,0.1
			c0,0,0,0.1-0.1,0.1c0,0,0,0,0,0.1c0,0,0,0,0-0.1c-0.1-0.1-0.1-0.2-0.1-0.3C55.7,20.7,55.5,20.6,55.5,20.5L55.5,20.5z"/>
		<path class="st1" d="M49.1,7.4c0.1,0,0.1-0.1,0.1-0.1c0.1,0,0,0.1,0,0.2c0,0,0,0.1-0.1,0c-0.2-0.1-0.3-0.1-0.5-0.2
			C48.9,7.3,49,7.3,49.1,7.4z"/>
		<path class="st1" d="M31.9,8.5c0.1,0,0.1,0,0.1,0c0,0,0,0,0,0c0,0-0.1-0.1,0-0.1c0.1,0,0.1-0.1,0.2-0.1c0,0,0,0,0,0.1
			c0,0,0,0.1,0,0.1c0,0,0.1,0.1,0,0.1c-0.1,0-0.1,0.1-0.2,0C32.1,8.6,32,8.6,31.9,8.5z"/>
		<path class="st1" d="M39.8,11.4c0.1-0.1,0-0.2,0.1-0.3c0,0,0,0,0,0c0-0.1,0-0.1,0.1-0.1c0.1,0,0.1,0.1,0.1,0.1
			c0,0.1-0.1,0.2-0.2,0.2C40,11.3,39.9,11.4,39.8,11.4L39.8,11.4z"/>
		<path class="st1" d="M51.4,15.7C51.4,15.7,51.4,15.7,51.4,15.7c-0.1,0-0.1-0.1-0.1-0.1c0-0.1-0.1-0.1-0.2-0.1
			c-0.1,0-0.1-0.1-0.1-0.2c0-0.1,0-0.1,0-0.2c0,0,0-0.1,0.1-0.1c0,0,0.1,0,0.1,0c0,0,0,0.1,0,0.1c-0.1,0.1,0,0.2,0,0.3
			C51.3,15.6,51.4,15.6,51.4,15.7C51.4,15.7,51.4,15.7,51.4,15.7L51.4,15.7z"/>
		<path class="st1" d="M53.1,11.7c-0.1-0.1-0.1,0-0.1,0.1c0,0,0,0.1,0,0.1c0,0,0,0,0,0.1c0,0,0,0-0.1,0c0,0,0,0,0-0.1
			c0,0,0-0.1,0-0.1c0-0.2,0-0.3-0.1-0.5c0,0,0-0.1,0-0.1c0-0.1,0.1-0.1,0.1-0.2C53,11.2,53,11.5,53.1,11.7z"/>
		<path class="st1" d="M45.1,7.3C45.1,7.3,45.1,7.3,45.1,7.3C45.2,7.3,45.2,7.4,45.1,7.3C45.1,7.4,45.1,7.4,45.1,7.3
			c-0.1,0-0.1,0-0.1-0.1c0,0,0-0.1,0.1-0.1c0,0,0,0,0,0c0.1,0.1,0.3,0,0.3,0.1c0,0,0,0,0.1,0c0,0,0.1,0,0.1,0c0,0,0,0.1,0,0.1
			c-0.1,0-0.2,0.1-0.3,0C45.2,7.2,45.1,7.3,45.1,7.3L45.1,7.3z"/>
		<path class="st1" d="M49.9,17.5c0.1,0.1,0.3,0,0.5,0.1c0,0,0.1,0,0.1,0.1c0,0,0,0,0,0c0,0,0,0,0,0c-0.2-0.1-0.4-0.1-0.5-0.1
			C49.9,17.7,49.8,17.6,49.9,17.5C49.8,17.6,49.8,17.6,49.9,17.5C49.8,17.5,49.8,17.6,49.9,17.5L49.9,17.5z"/>
		<path class="st1" d="M51.2,16.2c0-0.2,0.2-0.1,0.3-0.2c0,0,0,0,0.1,0.1c0,0.1,0,0.1-0.1,0.2c0,0-0.1,0-0.1,0
			C51.3,16.2,51.3,16.2,51.2,16.2z"/>
		<path class="st1" d="M32.6,8.5c0-0.1,0.1-0.1,0.1-0.1c0.1,0,0.2-0.1,0.2,0c0,0.1-0.1,0.1-0.1,0.1c0,0-0.1,0-0.1,0.1
			c0,0,0,0.1-0.1,0.1C32.6,8.6,32.6,8.6,32.6,8.5C32.6,8.5,32.6,8.5,32.6,8.5L32.6,8.5z"/>
		<path class="st1" d="M53.2,21.2c0.2,0,0.2,0,0.1,0.2c0,0.1-0.1,0.1-0.2,0C53.2,21.4,53.1,21.3,53.2,21.2
			C53.1,21.2,53.2,21.2,53.2,21.2z"/>
		<path class="st1" d="M49.3,7.7c0.1-0.1,0.1-0.1,0.1-0.2c0.1-0.1,0.2-0.1,0.3,0c0,0,0,0.1,0,0.1C49.5,7.6,49.4,7.7,49.3,7.7
			L49.3,7.7z"/>
		<path class="st1" d="M34.5,22.8c0.1,0,0.1-0.1,0.1-0.2c0.1,0,0.2,0.1,0.2,0.2c0,0,0,0,0,0.1c0,0-0.1,0-0.1,0
			C34.7,22.8,34.6,22.9,34.5,22.8L34.5,22.8z"/>
		<path class="st1" d="M53,8.2c-0.1,0-0.2-0.1-0.3,0c0,0-0.1,0-0.1,0c0,0,0-0.1,0-0.1c0,0,0.1,0,0.1,0c0.1,0,0.1,0.1,0.2,0
			C52.9,8.1,52.9,8.1,53,8.2L53,8.2z"/>
		<path class="st1" d="M32.6,9c0,0.1-0.1,0.1-0.1,0.2c0,0,0,0.1-0.1,0c0,0,0-0.1,0-0.1C32.5,9.1,32.5,9.1,32.6,9
			c-0.2,0.1-0.2,0.1-0.3,0.1c-0.1,0-0.1,0-0.1-0.1c0,0,0-0.1,0-0.1c0,0,0,0,0.1,0C32.4,9,32.5,9,32.6,9L32.6,9z"/>
		<path class="st1" d="M48.8,7.3C48.8,7.3,48.8,7.3,48.8,7.3c-0.1,0-0.2,0-0.2-0.1c0,0,0,0,0-0.1c0.1-0.1,0.2-0.1,0.3,0
			c0.1,0,0.1,0.1,0,0.1C48.9,7.3,48.9,7.3,48.8,7.3z"/>
		<path class="st1" d="M32.1,7.7c-0.1,0-0.1-0.1-0.2-0.1c-0.1,0-0.1-0.1-0.2-0.1c-0.1,0-0.1-0.1-0.1-0.1C31.8,7.4,32.1,7.5,32.1,7.7
			z"/>
		<path class="st1" d="M30.7,7.8c-0.1,0.1-0.1,0.2-0.2,0.1c0,0,0,0-0.1,0c-0.1,0.1-0.1,0.1-0.2,0.1C30.3,7.9,30.5,7.9,30.7,7.8
			L30.7,7.8z"/>
		<path class="st1" d="M32,7.9c0.1,0,0.2,0.1,0.2,0.1c0,0,0,0.1-0.1,0.1C32.1,8.2,31.9,8,32,7.9C32,7.9,32,7.9,32,7.9L32,7.9z"/>
		<path class="st1" d="M34.8,15.1c-0.2,0-0.3,0.1-0.4,0C34.5,14.9,34.6,14.9,34.8,15.1z"/>
		<path class="st1" d="M44.8,7.1C44.8,7.1,44.9,7.1,44.8,7.1C44.9,7.2,44.9,7.2,44.8,7.1c0,0.1,0,0.2,0.1,0.2c0,0,0,0,0,0
			c0,0,0,0-0.1,0c0,0-0.1,0-0.1,0c0,0-0.1,0-0.1-0.1C44.7,7.1,44.8,7.1,44.8,7.1L44.8,7.1z"/>
		<path class="st1" d="M51.3,18C51.3,18,51.3,18,51.3,18C51.3,17.9,51.3,17.9,51.3,18c0-0.1,0.1-0.2,0.2-0.2c0,0,0,0,0.1,0
			c0,0,0,0,0,0.1C51.5,17.9,51.4,17.9,51.3,18L51.3,18z"/>
		<path class="st1" d="M47.5,16.2c0,0,0-0.1,0.1-0.1c0.1,0,0.1,0.1,0.1,0.2c0,0.1,0,0.1-0.1,0.1C47.5,16.3,47.5,16.2,47.5,16.2z"/>
		<path class="st1" d="M31.2,7.7c0,0-0.1,0-0.1,0C31.1,7.6,31.2,7.6,31.2,7.7c0.1,0,0,0.1-0.1,0.1c0,0-0.1,0.1-0.1,0
			C31,7.7,31.1,7.7,31.2,7.7C31.1,7.7,31.1,7.7,31.2,7.7L31.2,7.7z"/>
		<path class="st1" d="M53.7,17.3c0,0.1-0.1,0.2-0.2,0.2c0,0-0.1,0-0.1,0c0,0,0-0.1,0-0.1C53.6,17.4,53.7,17.4,53.7,17.3z"/>
		<path class="st1" d="M34.1,8.5c-0.1,0-0.1,0-0.2,0c-0.1,0-0.1,0-0.1-0.1c0-0.1,0.1,0,0.1,0C33.9,8.4,34,8.4,34.1,8.5L34.1,8.5z"/>
		<path class="st1" d="M27.7,10.5c0,0.1-0.1,0.1-0.1,0.2c0,0,0,0-0.1,0c0,0,0-0.1,0-0.1C27.6,10.6,27.6,10.6,27.7,10.5L27.7,10.5z"
			/>
		<path class="st1" d="M41.8,13c0.1,0,0.1-0.1,0.2,0c0,0,0,0.1,0,0.1C41.9,13.1,41.9,13.1,41.8,13z"/>
		<path class="st1" d="M45.6,7.1C45.6,7.1,45.6,7.1,45.6,7.1c-0.1,0-0.1,0.1-0.2,0c0,0-0.1,0-0.1-0.1c0-0.1,0.1,0,0.1,0
			C45.4,7.1,45.5,7,45.6,7.1C45.5,7,45.6,7,45.6,7.1L45.6,7.1z"/>
		<path class="st1" d="M26.2,10c-0.1,0-0.1,0-0.1-0.1c0-0.1,0,0,0.1,0C26.2,9.9,26.3,9.9,26.2,10C26.3,9.9,26.2,10,26.2,10z"/>
		<path class="st1" d="M55,19.1C55,19.1,55,19.1,55,19.1c-0.1,0-0.2,0-0.2-0.1c0,0,0,0,0,0C54.9,19,54.9,19,55,19.1L55,19.1z"/>
		<path class="st1" d="M45.6,7.3c0,0,0-0.1-0.1-0.1c0,0,0-0.1,0,0c0,0,0.1,0,0.1,0.1C45.7,7.3,45.7,7.3,45.6,7.3z"/>
		<path class="st1" d="M53,8.4c-0.1,0-0.1,0-0.2,0c0,0,0-0.1,0-0.1C52.9,8.3,52.9,8.4,53,8.4L53,8.4z"/>
		<path class="st1" d="M27.4,15C27.3,15,27.3,15,27.4,15c0-0.1-0.1-0.2-0.1-0.2C27.4,14.8,27.4,14.9,27.4,15
			C27.4,15,27.4,15,27.4,15L27.4,15z"/>
		<path class="st1" d="M35.3,11.6c0.1,0,0.1,0,0.1,0.1c0,0,0,0-0.1,0C35.3,11.8,35.2,11.7,35.3,11.6C35.2,11.6,35.2,11.6,35.3,11.6
			L35.3,11.6z"/>
		<path class="st1" d="M46.7,22.1C46.7,22.2,46.7,22.2,46.7,22.1c-0.1,0.1-0.2,0-0.2,0c0,0,0,0,0,0C46.6,22.1,46.6,22.1,46.7,22.1
			C46.7,22.1,46.7,22.1,46.7,22.1L46.7,22.1z"/>
		<path class="st1" d="M51.1,14.7c-0.1-0.1-0.1-0.2,0-0.3C51.1,14.5,51.1,14.6,51.1,14.7z"/>
		<path class="st1" d="M56,8.8c0.1-0.1,0.2-0.1,0.3,0C56.2,8.8,56.1,8.8,56,8.8z"/>
		<path class="st1" d="M45.9,8.9C45.9,9,45.9,9,45.9,8.9c-0.1,0-0.2,0-0.2,0c0,0,0,0,0,0C45.9,8.9,45.9,8.9,45.9,8.9L45.9,8.9z"/>
		<path class="st1" d="M37.4,22.7c0.1,0,0.1,0,0.1,0.1c0,0,0,0-0.1,0C37.5,22.8,37.4,22.8,37.4,22.7C37.4,22.7,37.4,22.7,37.4,22.7z
			"/>
		<path class="st1" d="M45,9c0,0.1-0.1,0.1-0.1,0.1c0,0,0,0,0,0C44.9,9,44.9,9,45,9C45,9,45,9,45,9L45,9z"/>
		<path class="st1" d="M46.1,7.2c0-0.1,0.1-0.1,0.2-0.1c0,0,0,0,0,0c0,0,0,0,0,0C46.2,7.2,46.2,7.2,46.1,7.2L46.1,7.2z"/>
		<path class="st1" d="M51.8,17.3C51.7,17.3,51.7,17.3,51.8,17.3C51.7,17.2,51.7,17.2,51.8,17.3C51.8,17.2,51.9,17.2,51.8,17.3
			C51.9,17.3,51.8,17.3,51.8,17.3z"/>
		<path class="st1" d="M34,7.1c-0.1,0.1-0.2,0.1-0.3,0.1C33.8,7.1,33.9,7.1,34,7.1z"/>
		<path class="st1" d="M53.9,17.3C53.9,17.3,53.9,17.4,53.9,17.3c-0.1,0-0.1,0-0.1-0.1c0,0,0,0,0,0C53.8,17.2,53.9,17.3,53.9,17.3z"
			/>
		<path class="st1" d="M46,7.1C46,7.1,46,7.1,46,7.1c0,0.1-0.1,0.1-0.1,0.1c0,0,0,0,0,0C45.9,7.2,46,7.1,46,7.1L46,7.1z"/>
		<path class="st1" d="M32.5,8.1C32.6,8.1,32.6,8.1,32.5,8.1c0.1,0.1,0.1,0.1,0,0.1C32.5,8.2,32.5,8.2,32.5,8.1
			C32.5,8.1,32.5,8.1,32.5,8.1z"/>
		<path class="st1" d="M45.8,6.9C45.8,6.9,45.8,6.9,45.8,6.9C45.8,7,45.8,7,45.8,6.9c0,0.1,0,0.2-0.1,0.2c0,0-0.1,0-0.1-0.1
			c0,0,0,0,0,0C45.7,7,45.8,7,45.8,6.9L45.8,6.9z"/>
		<path class="st1" d="M51.7,17c0-0.1-0.1-0.1,0-0.2c0,0,0,0,0,0C51.7,16.9,51.7,16.9,51.7,17z"/>
		<path class="st1" d="M34.4,22.8c0-0.1,0-0.1-0.1-0.1c0,0-0.1,0,0-0.1c0,0,0.1,0,0.1,0C34.4,22.6,34.4,22.7,34.4,22.8z"/>
		<path class="st1" d="M53,8c0.1,0,0.1,0,0.2,0c0,0,0,0,0,0C53,8.1,53,8.1,53,8z"/>
		<path class="st1" d="M40.1,10.1c-0.1,0,0,0.1-0.1,0.1c0,0,0,0,0,0C40.1,10.1,40,10,40.1,10.1C40.1,10,40.1,10.1,40.1,10.1z"/>
		<path class="st1" d="M51.7,14.2C51.7,14.2,51.7,14.2,51.7,14.2c0,0.1,0,0.1,0,0.1C51.6,14.3,51.6,14.3,51.7,14.2
			C51.6,14.2,51.6,14.2,51.7,14.2z"/>
	</g>
</g>
<g>
	<defs>
		<rect id="SVGID_00000178909304684567554570000001577368643492741252_" x="5" y="4.5" width="20" height="20"/>
	</defs>
	<clipPath id="SVGID_00000107588992383632037950000017804701782453962624_">
		<use xlink:href="#SVGID_00000178909304684567554570000001577368643492741252_"  style="overflow:visible;"/>
	</clipPath>
	<g style="clip-path:url(#SVGID_00000107588992383632037950000017804701782453962624_);">
		<path class="st1" d="M15,24.5c-5.5,0-10-4.5-10-10s4.5-10,10-10c5.5,0,10,4.5,10,10C25,20.1,20.5,24.5,15,24.5L15,24.5z M15,4.9
			c-5.3,0-9.6,4.3-9.6,9.6c0,5.3,4.3,9.6,9.6,9.6c5.3,0,9.6-4.3,9.6-9.6C24.6,9.2,20.3,4.9,15,4.9z"/>
		<path class="st1" d="M15,24.5c-4.4,0-8-4.5-8-10c0-5.5,3.6-10,8-10s8,4.5,8,10C23,20.1,19.4,24.5,15,24.5L15,24.5z M15,4.9
			c-4.2,0-7.7,4.3-7.7,9.6c0,5.3,3.4,9.6,7.7,9.6c4.2,0,7.7-4.3,7.7-9.6C22.7,9.2,19.2,4.9,15,4.9z"/>
		<path class="st1" d="M15,24.5c-3.3,0-6-4.5-6-10c0-5.5,2.7-10,6-10c3.3,0,6,4.5,6,10C21,20.1,18.3,24.5,15,24.5L15,24.5z M15,4.9
			c-3.1,0-5.6,4.3-5.6,9.6c0,5.3,2.5,9.6,5.6,9.6s5.6-4.3,5.6-9.6C20.6,9.2,18.1,4.9,15,4.9z"/>
		<path class="st1" d="M15,24.5c-2.2,0-4-4.4-4-10c0-5.6,1.8-10,4-10s4,4.4,4,10C19,20.2,17.2,24.5,15,24.5L15,24.5z M15,4.9
			c-2,0-3.6,4.4-3.6,9.6c0,5.2,1.7,9.6,3.6,9.6s3.6-4.4,3.6-9.6C18.6,9.3,17,4.9,15,4.9z"/>
		<path class="st1" d="M15,24.5c-1.4,0-2.1-5.2-2.1-10c0-4.8,0.7-10,2.1-10s2.1,5.2,2.1,10C17.1,19.4,16.4,24.5,15,24.5L15,24.5z
			 M15,4.9c-0.7,0-1.8,3.4-1.8,9.6c0,6.2,1,9.6,1.8,9.6c0.7,0,1.8-3.4,1.8-9.6C16.8,8.4,15.7,4.9,15,4.9z"/>
		<path class="st1" d="M15.2,4.7h-0.4v19.6h0.4V4.7z"/>
		<path class="st1" d="M24.8,14.4H5.2v0.4h19.6V14.4z"/>
	</g>
</g>
<path class="st1" d="M19.9,2.5h-0.4V0.1h0.4V2.5z"/>
<path class="st1" d="M22,0.8V0.1h0.4v2.5h-0.4l-0.8-1.2c-0.2-0.4-0.4-0.6-0.5-0.8c0,0.3,0,0.7,0,1.3v0.8h-0.4V0.1h0.4l0.8,1.2
	c0.2,0.3,0.4,0.6,0.5,0.8C22,1.8,22,1.4,22,0.8z"/>
<path class="st1" d="M22.6,0.1h2v0.3h-0.8v2.2h-0.4V0.4h-0.8V0.1z"/>
<path class="st1" d="M26.6,0.1v0.3h-1.4v0.7h1.3v0.3h-1.3v0.8h1.4v0.3h-1.8V0.1H26.6z"/>
<path class="st1" d="M28.8,1.9l0,0.4c0,0.1,0,0.2,0.1,0.3h-0.4c0-0.1-0.1-0.2-0.1-0.3l0-0.3c0-0.2,0-0.3-0.1-0.3
	c-0.1-0.1-0.2-0.1-0.3-0.1h-0.7v1h-0.4V0.1H28c0.3,0,0.5,0.1,0.6,0.2c0.2,0.1,0.2,0.3,0.2,0.5c0,0.2,0,0.3-0.1,0.4
	c-0.1,0.1-0.2,0.2-0.3,0.2c0.1,0,0.2,0.1,0.3,0.2C28.8,1.6,28.8,1.7,28.8,1.9z M27.3,1.2H28c0.1,0,0.3,0,0.3-0.1
	c0.1-0.1,0.1-0.2,0.1-0.3c0-0.1,0-0.2-0.1-0.3c-0.1-0.1-0.2-0.1-0.4-0.1h-0.7V1.2z"/>
<path class="st1" d="M30.9,0.8V0.1h0.4v2.5h-0.4l-0.8-1.2c-0.2-0.4-0.4-0.6-0.5-0.8c0,0.3,0,0.7,0,1.3v0.8h-0.4V0.1h0.4l0.8,1.2
	c0.2,0.3,0.4,0.6,0.5,0.8C30.9,1.8,30.9,1.4,30.9,0.8z"/>
<path class="st1" d="M33.9,2.5h-0.4l-0.2-0.6h-1.1l-0.2,0.6h-0.4l1-2.5h0.4L33.9,2.5z M32.3,1.4l-0.1,0.1h0.9L33,1.4
	c-0.1-0.3-0.3-0.6-0.4-1C32.5,0.8,32.4,1.2,32.3,1.4z"/>
<path class="st1" d="M33.5,0.1h2v0.3h-0.8v2.2h-0.4V0.4h-0.8V0.1z"/>
<path class="st1" d="M36.2,2.5h-0.4V0.1h0.4V2.5z"/>
<path class="st1" d="M37.7,2.6c-0.4,0-0.7-0.1-0.9-0.4c-0.2-0.2-0.3-0.6-0.3-0.9c0-0.4,0.1-0.7,0.3-0.9C37,0.1,37.3,0,37.7,0
	c0.4,0,0.7,0.1,0.9,0.4c0.2,0.2,0.3,0.6,0.3,0.9c0,0.4-0.1,0.7-0.3,0.9C38.4,2.5,38.1,2.6,37.7,2.6z M37.1,2
	c0.1,0.2,0.3,0.3,0.6,0.3c0.3,0,0.5-0.1,0.6-0.3c0.1-0.2,0.2-0.4,0.2-0.7s-0.1-0.5-0.2-0.7c-0.2-0.2-0.4-0.3-0.6-0.3
	c-0.2,0-0.5,0.1-0.6,0.3C37,0.8,36.9,1,36.9,1.3C36.9,1.6,37,1.8,37.1,2z"/>
<path class="st1" d="M40.9,0.8V0.1h0.4v2.5h-0.4l-0.8-1.2c-0.2-0.4-0.4-0.6-0.5-0.8c0,0.3,0,0.7,0,1.3v0.8h-0.4V0.1h0.4l0.8,1.2
	c0.2,0.3,0.4,0.6,0.5,0.8C40.9,1.8,40.9,1.4,40.9,0.8z"/>
<path class="st1" d="M43.9,2.5h-0.4l-0.2-0.6h-1.1l-0.2,0.6h-0.4l1-2.5h0.4L43.9,2.5z M42.3,1.4l-0.1,0.1h0.9l-0.1-0.1
	c-0.1-0.3-0.3-0.6-0.4-1C42.5,0.8,42.4,1.2,42.3,1.4z"/>
<path class="st1" d="M44.5,0.1v2.2h1.2v0.3h-1.6V0.1H44.5z"/>
<path class="st1" d="M20.8,29.5h-0.4v-2.5h0.4V29.5z"/>
<path class="st1" d="M22.9,27.8v-0.8h0.4v2.5h-0.4l-0.8-1.2c-0.2-0.4-0.4-0.6-0.5-0.8c0,0.3,0,0.7,0,1.3v0.8h-0.4v-2.5h0.4l0.8,1.2
	c0.2,0.3,0.4,0.6,0.5,0.8C22.9,28.8,22.9,28.4,22.9,27.8z"/>
<path class="st1" d="M24.9,28.5l0.5-1.4h0.4l-0.9,2.5h-0.4l-0.9-2.5h0.4l0.5,1.4c0.1,0.2,0.2,0.5,0.2,0.7
	C24.7,29.1,24.8,28.8,24.9,28.5z"/>
<path class="st1" d="M27.8,27.1v0.3h-1.4v0.7h1.3v0.3h-1.3v0.8h1.4v0.3H26v-2.5H27.8z"/>
<path class="st1" d="M29,29.6c-0.3,0-0.6-0.1-0.8-0.2C28,29.2,28,29,28,28.7h0.4c0,0.4,0.2,0.6,0.7,0.6c0.2,0,0.3,0,0.4-0.1
	c0.1-0.1,0.2-0.2,0.2-0.3c0-0.1,0-0.2-0.1-0.3c-0.1-0.1-0.2-0.1-0.4-0.2l-0.2,0c-0.3-0.1-0.5-0.1-0.6-0.3C28.1,28,28,27.9,28,27.7
	c0-0.2,0.1-0.4,0.2-0.5c0.2-0.1,0.4-0.2,0.6-0.2c0.3,0,0.6,0.1,0.7,0.2c0.2,0.1,0.3,0.3,0.3,0.6h-0.4c0-0.2-0.1-0.3-0.2-0.4
	c-0.1-0.1-0.2-0.1-0.5-0.1c-0.2,0-0.3,0-0.4,0.1s-0.1,0.1-0.1,0.3c0,0.1,0,0.2,0.1,0.3c0.1,0.1,0.2,0.1,0.4,0.2l0.2,0
	c0.3,0.1,0.5,0.1,0.6,0.3c0.1,0.1,0.2,0.3,0.2,0.5c0,0.2-0.1,0.4-0.3,0.5C29.5,29.5,29.3,29.6,29,29.6z"/>
<path class="st1" d="M30,27.1h2v0.3h-0.8v2.2h-0.4v-2.2H30V27.1z"/>
<path class="st1" d="M33.8,28.3l0.5-1.3h0.5v2.5h-0.4v-0.8c0-0.6,0-1,0-1.3c0,0.1-0.1,0.3-0.2,0.6l-0.6,1.5h-0.3l-0.6-1.5
	c-0.1-0.2-0.1-0.4-0.2-0.6c0,0.3,0,0.7,0,1.3v0.8h-0.4v-2.5h0.5l0.5,1.3c0.1,0.3,0.2,0.5,0.3,0.7C33.6,28.9,33.7,28.6,33.8,28.3z"/>
<path class="st1" d="M37,27.1v0.3h-1.4v0.7h1.3v0.3h-1.3v0.8H37v0.3h-1.8v-2.5H37z"/>
<path class="st1" d="M39,27.8v-0.8h0.4v2.5h-0.4l-0.8-1.2c-0.2-0.4-0.4-0.6-0.5-0.8c0,0.3,0,0.7,0,1.3v0.8h-0.4v-2.5h0.4l0.8,1.2
	c0.2,0.3,0.4,0.6,0.5,0.8C39,28.8,39,28.4,39,27.8z"/>
<path class="st1" d="M39.6,27.1h2v0.3h-0.8v2.2h-0.4v-2.2h-0.8V27.1z"/>
<path class="st1" d="M42.7,29.6c-0.3,0-0.6-0.1-0.8-0.2c-0.2-0.1-0.3-0.4-0.3-0.7h0.4c0,0.4,0.2,0.6,0.7,0.6c0.2,0,0.3,0,0.4-0.1
	c0.1-0.1,0.2-0.2,0.2-0.3c0-0.1,0-0.2-0.1-0.3c-0.1-0.1-0.2-0.1-0.4-0.2l-0.2,0c-0.3-0.1-0.5-0.1-0.6-0.3c-0.1-0.1-0.2-0.3-0.2-0.5
	c0-0.2,0.1-0.4,0.2-0.5c0.2-0.1,0.4-0.2,0.6-0.2c0.3,0,0.6,0.1,0.7,0.2c0.2,0.1,0.3,0.3,0.3,0.6h-0.4c0-0.2-0.1-0.3-0.2-0.4
	c-0.1-0.1-0.2-0.1-0.5-0.1c-0.2,0-0.3,0-0.4,0.1c-0.1,0.1-0.1,0.1-0.1,0.3c0,0.1,0,0.2,0.1,0.3c0.1,0.1,0.2,0.1,0.4,0.2l0.2,0
	c0.3,0.1,0.5,0.1,0.6,0.3c0.1,0.1,0.2,0.3,0.2,0.5c0,0.2-0.1,0.4-0.3,0.5C43.3,29.5,43,29.6,42.7,29.6z"/>
<path class="st3" d="M18,1.5h-3.5C7,1.5,1,7.6,1,15l0,0c0,7.5,6,13.5,13.5,13.5H18"/>
<path class="st3" d="M47,1.5h3.5C58,1.5,64,7.6,64,15l0,0c0,7.5-6,13.5-13.5,13.5H47"/>
</svg>
