<?xml version="1.0" encoding="utf-8"?>
<!-- Generator: Adobe Illustrator 28.3.0, SVG Export Plug-In . SVG Version: 6.00 Build 0)  -->
<svg version="1.1" id="Calque_1" xmlns="http://www.w3.org/2000/svg" xmlns:xlink="http://www.w3.org/1999/xlink" x="0px" y="0px"
	 viewBox="0 0 140 28" style="enable-background:new 0 0 140 28;" xml:space="preserve">
<style type="text/css">
	.st0{fill-rule:evenodd;clip-rule:evenodd;fill:#FFFFFF;}
	.st1{fill:#FFFFFF;}
</style>
<path class="st0" d="M139.3,0.7H0.7v26.6h138.6V0.7z M0,0v28h140V0H0z"/>
<path class="st1" d="M27.9,23.7c-1.1,0-2-0.1-2.6-0.4c-0.6-0.3-1.1-0.7-1.5-1.2c-0.3-0.5-0.6-1.1-0.7-1.7c-0.1-0.6-0.2-1.3-0.3-1.9
	c-0.1-0.7-0.2-1.3-0.3-1.9c-0.1-0.6-0.3-1.2-0.6-1.7c-0.3-0.5-0.7-0.9-1.3-1.2c-0.5-0.3-1.3-0.5-2.2-0.5h-5.1v8
	c0,0.5,0.1,0.9,0.3,1.2c0.2,0.3,0.5,0.5,0.7,0.7c0.3,0.2,0.6,0.3,0.9,0.3c0.3,0,0.6,0.1,0.9,0.1v0.3H6.2v-0.3c0.3,0,0.6,0,0.9-0.1
	c0.3-0.1,0.6-0.2,0.9-0.3c0.3-0.2,0.5-0.4,0.7-0.7c0.2-0.3,0.3-0.7,0.3-1.2V6.8c0-0.5-0.1-0.9-0.3-1.2C8.6,5.3,8.3,5.1,8.1,4.9
	C7.8,4.8,7.4,4.7,7.1,4.6C6.8,4.6,6.5,4.6,6.2,4.6V4.3h12.1c3.1,0,5.4,0.4,6.9,1.2c1.5,0.8,2.3,1.8,2.3,3.2c0,1.1-0.5,2.1-1.5,2.8
	c-1,0.8-2.5,1.3-4.4,1.6c1,0.2,1.8,0.5,2.4,1c0.7,0.4,1.2,0.9,1.6,1.4c0.4,0.5,0.7,1.1,0.9,1.7c0.2,0.6,0.4,1.2,0.5,1.8
	c0.1,0.6,0.3,1.2,0.4,1.7c0.1,0.5,0.2,1,0.4,1.4c0.2,0.4,0.4,0.7,0.7,1c0.3,0.2,0.7,0.4,1.2,0.4v0.3H27.9z M18.3,12.7
	c1,0,1.8-0.1,2.5-0.3c0.7-0.2,1.2-0.6,1.6-0.9c0.4-0.4,0.6-0.8,0.8-1.3c0.2-0.5,0.2-1,0.2-1.5c0-0.5-0.1-1-0.2-1.4
	C23,6.7,22.7,6.3,22.3,6c-0.4-0.4-0.9-0.6-1.6-0.9c-0.6-0.2-1.5-0.3-2.5-0.3h-5.1v7.9H18.3z"/>
<path class="st0" d="M34.5,28V0l0.7,0v28H34.5z"/>
<path class="st0" d="M34.5,10.1H140v0.7H34.5V10.1z"/>
<path class="st1" d="M70,6.5l0,0.8c0,0.2,0.1,0.4,0.2,0.6h-1c-0.1-0.1-0.1-0.3-0.1-0.6l0-0.6c0-0.3-0.1-0.5-0.2-0.6
	c-0.1-0.1-0.3-0.2-0.6-0.2H67v2h-1V2.8h2.3c0.6,0,1,0.1,1.3,0.4s0.5,0.6,0.5,1.1c0,0.6-0.3,1-0.9,1.2c0.3,0.1,0.4,0.2,0.6,0.4
	C70,6,70,6.2,70,6.5z M67,3.6v1.6h1.3c0.3,0,0.5-0.1,0.6-0.2c0.2-0.1,0.2-0.3,0.2-0.6c0-0.2-0.1-0.4-0.2-0.6
	c-0.2-0.1-0.4-0.2-0.7-0.2H67z"/>
<path class="st1" d="M74.6,2.8v0.9h-2.8v1.2h2.5v0.8h-2.5V7h2.8v0.9h-3.8V2.8H74.6z"/>
<path class="st1" d="M77.1,8c-0.7,0-1.2-0.2-1.6-0.5c-0.4-0.3-0.6-0.8-0.6-1.3h1c0,0.4,0.1,0.6,0.3,0.8c0.2,0.2,0.5,0.2,0.9,0.2
	c0.3,0,0.6-0.1,0.8-0.2c0.2-0.1,0.3-0.3,0.3-0.6c0-0.2-0.1-0.4-0.2-0.5c-0.1-0.1-0.4-0.2-0.8-0.3l-0.4-0.1C75.6,5.5,75,4.9,75,4.1
	c0-0.4,0.2-0.8,0.5-1c0.3-0.3,0.8-0.4,1.4-0.4c0.7,0,1.2,0.1,1.5,0.4C78.8,3.4,79,3.8,79,4.3h-0.9c0-0.3-0.1-0.5-0.3-0.6
	c-0.2-0.1-0.4-0.2-0.8-0.2c-0.3,0-0.5,0.1-0.7,0.2C76.1,3.7,76,3.9,76,4.1c0,0.2,0.1,0.4,0.2,0.5c0.1,0.1,0.4,0.2,0.8,0.3l0.4,0.1
	c0.6,0.1,1,0.3,1.3,0.5c0.3,0.2,0.4,0.6,0.4,1c0,0.5-0.2,0.9-0.5,1.2C78.3,7.9,77.8,8,77.1,8z"/>
<path class="st1" d="M79.2,2.8h4.3v0.9h-1.6v4.2h-1V3.7h-1.6V2.8z"/>
<path class="st1" d="M87.9,6.5l0,0.8c0,0.2,0.1,0.4,0.2,0.6h-1C87,7.8,87,7.6,87,7.3l0-0.6c0-0.3-0.1-0.5-0.2-0.6
	c-0.1-0.1-0.3-0.2-0.6-0.2h-1.3v2h-1V2.8h2.3c0.6,0,1,0.1,1.3,0.4C87.9,3.4,88,3.8,88,4.2c0,0.6-0.3,1-0.9,1.2
	c0.3,0.1,0.4,0.2,0.6,0.4C87.8,6,87.9,6.2,87.9,6.5z M84.9,3.6v1.6h1.3c0.3,0,0.5-0.1,0.6-0.2C87,4.8,87,4.6,87,4.3
	c0-0.2-0.1-0.4-0.2-0.6c-0.2-0.1-0.4-0.2-0.7-0.2H84.9z"/>
<path class="st1" d="M89.7,7.9h-1V2.8h1V7.9z"/>
<path class="st1" d="M92.8,8C92,8,91.4,7.8,91,7.3c-0.5-0.5-0.7-1.1-0.7-1.9c0-0.8,0.2-1.5,0.7-2c0.4-0.5,1-0.7,1.8-0.7
	c0.6,0,1.1,0.2,1.5,0.5c0.4,0.3,0.7,0.8,0.8,1.4h-1C94,4.2,93.8,4,93.6,3.8c-0.2-0.2-0.5-0.3-0.9-0.3c-0.5,0-0.8,0.2-1.1,0.5
	c-0.3,0.3-0.4,0.8-0.4,1.3c0,0.6,0.1,1,0.4,1.3c0.3,0.3,0.6,0.5,1.1,0.5c0.4,0,0.7-0.1,0.9-0.3c0.3-0.2,0.4-0.5,0.5-0.9h1
	c-0.1,0.7-0.3,1.2-0.8,1.5C93.9,7.8,93.4,8,92.8,8z"/>
<path class="st1" d="M95,2.8h4.3v0.9h-1.6v4.2h-1V3.7H95V2.8z"/>
<path class="st1" d="M103.5,2.8v0.9h-2.8v1.2h2.5v0.8h-2.5V7h2.8v0.9h-3.8V2.8H103.5z"/>
<path class="st1" d="M104.1,2.8h2c0.8,0,1.4,0.2,1.9,0.7c0.4,0.5,0.7,1.1,0.7,1.9c0,0.8-0.2,1.4-0.7,1.9c-0.4,0.5-1.1,0.7-1.9,0.7
	h-2V2.8z M105.1,7.1h1c0.5,0,0.9-0.1,1.2-0.4c0.3-0.3,0.4-0.7,0.4-1.3s-0.1-1-0.4-1.3c-0.3-0.3-0.7-0.4-1.2-0.4h-1V7.1z"/>
<path class="st1" d="M65.6,14.4h1.4c0.6,0,1,0.2,1.3,0.5c0.3,0.3,0.5,0.8,0.5,1.3c0,0.6-0.2,1-0.5,1.3c-0.3,0.3-0.8,0.5-1.3,0.5
	h-1.4V14.4z M66.3,17.4h0.7c0.4,0,0.6-0.1,0.8-0.3c0.2-0.2,0.3-0.5,0.3-0.9c0-0.4-0.1-0.7-0.3-0.9c-0.2-0.2-0.5-0.3-0.8-0.3h-0.7
	V17.4z"/>
<path class="st1" d="M72.1,17.5c-0.3,0.3-0.8,0.5-1.3,0.5c-0.5,0-1-0.2-1.3-0.5c-0.3-0.3-0.5-0.8-0.5-1.4c0-0.6,0.2-1,0.5-1.4
	c0.3-0.3,0.8-0.5,1.3-0.5c0.5,0,1,0.2,1.3,0.5c0.3,0.3,0.5,0.8,0.5,1.4C72.6,16.7,72.4,17.2,72.1,17.5z M69.7,16.2
	c0,0.4,0.1,0.7,0.3,0.9c0.2,0.2,0.5,0.3,0.8,0.3c0.3,0,0.6-0.1,0.8-0.3c0.2-0.2,0.3-0.5,0.3-0.9c0-0.4-0.1-0.7-0.3-0.9
	c-0.2-0.2-0.5-0.3-0.8-0.3c-0.3,0-0.6,0.1-0.8,0.3C69.8,15.5,69.7,15.8,69.7,16.2z"/>
<path class="st1" d="M76.5,15.3v-0.9h0.7v3.6h-0.8l-1-1.6c-0.3-0.4-0.5-0.8-0.6-1.1c0,0.4,0,1,0,1.7v0.9h-0.7v-3.6h0.8l1,1.6
	c0.3,0.5,0.5,0.8,0.6,1.1C76.5,16.5,76.5,16,76.5,15.3z"/>
<path class="st1" d="M80.7,17.5c-0.3,0.3-0.8,0.5-1.3,0.5c-0.5,0-1-0.2-1.3-0.5c-0.3-0.3-0.5-0.8-0.5-1.4c0-0.6,0.2-1,0.5-1.4
	c0.3-0.3,0.8-0.5,1.3-0.5c0.5,0,1,0.2,1.3,0.5c0.3,0.3,0.5,0.8,0.5,1.4C81.1,16.7,81,17.2,80.7,17.5z M78.3,16.2
	c0,0.4,0.1,0.7,0.3,0.9c0.2,0.2,0.5,0.3,0.8,0.3c0.3,0,0.6-0.1,0.8-0.3c0.2-0.2,0.3-0.5,0.3-0.9c0-0.4-0.1-0.7-0.3-0.9
	c-0.2-0.2-0.5-0.3-0.8-0.3c-0.3,0-0.6,0.1-0.8,0.3C78.4,15.5,78.3,15.8,78.3,16.2z"/>
<path class="st1" d="M81.1,14.4h3V15h-1.1v3h-0.7v-3h-1.1V14.4z"/>
<path class="st1" d="M88.8,17.9h-0.7l-0.3-0.8h-1.6L86,17.9h-0.7l1.4-3.6h0.8L88.8,17.9z M86.6,16.2l-0.1,0.4h1.2l-0.1-0.4
	c-0.1-0.3-0.3-0.7-0.4-1.2C86.9,15.4,86.7,15.8,86.6,16.2z"/>
<path class="st1" d="M90.5,18c-0.5,0-0.9-0.2-1.3-0.5c-0.3-0.3-0.5-0.8-0.5-1.4c0-0.6,0.2-1,0.5-1.4c0.3-0.3,0.7-0.5,1.3-0.5
	c0.4,0,0.8,0.1,1.1,0.3c0.3,0.2,0.5,0.5,0.6,1h-0.7c-0.1-0.2-0.2-0.4-0.3-0.5c-0.2-0.1-0.4-0.2-0.6-0.2c-0.3,0-0.6,0.1-0.8,0.3
	c-0.2,0.2-0.3,0.5-0.3,0.9c0,0.4,0.1,0.7,0.3,0.9c0.2,0.2,0.4,0.3,0.8,0.3c0.2,0,0.5-0.1,0.6-0.2c0.2-0.1,0.3-0.4,0.3-0.6h0.7
	c0,0.5-0.2,0.8-0.5,1.1C91.3,17.9,90.9,18,90.5,18z"/>
<path class="st1" d="M94.1,18c-0.5,0-0.9-0.2-1.3-0.5c-0.3-0.3-0.5-0.8-0.5-1.4c0-0.6,0.2-1,0.5-1.4c0.3-0.3,0.7-0.5,1.3-0.5
	c0.4,0,0.8,0.1,1.1,0.3c0.3,0.2,0.5,0.5,0.6,1h-0.7c-0.1-0.2-0.2-0.4-0.3-0.5c-0.2-0.1-0.4-0.2-0.6-0.2c-0.3,0-0.6,0.1-0.8,0.3
	c-0.2,0.2-0.3,0.5-0.3,0.9c0,0.4,0.1,0.7,0.3,0.9c0.2,0.2,0.4,0.3,0.8,0.3c0.2,0,0.5-0.1,0.6-0.2c0.2-0.1,0.3-0.4,0.3-0.6h0.7
	c0,0.5-0.2,0.8-0.5,1.1C94.9,17.9,94.5,18,94.1,18z"/>
<path class="st1" d="M98.8,14.4V15h-2v0.8h1.8v0.6h-1.8v0.9h1.9v0.6h-2.6v-3.6H98.8z"/>
<path class="st1" d="M100.6,18c-0.5,0-0.9-0.1-1.1-0.3c-0.3-0.2-0.4-0.5-0.4-0.9h0.7c0,0.3,0.1,0.4,0.2,0.5c0.2,0.1,0.4,0.2,0.7,0.2
	c0.2,0,0.4,0,0.5-0.1c0.1-0.1,0.2-0.2,0.2-0.4c0-0.1-0.1-0.2-0.2-0.3c-0.1-0.1-0.3-0.1-0.6-0.2l-0.3-0.1c-0.8-0.1-1.2-0.5-1.2-1.1
	c0-0.3,0.1-0.6,0.4-0.7c0.2-0.2,0.6-0.3,1-0.3c0.5,0,0.8,0.1,1.1,0.3c0.2,0.2,0.4,0.5,0.4,0.8h-0.7c0-0.2-0.1-0.4-0.2-0.5
	c-0.1-0.1-0.3-0.1-0.6-0.1c-0.2,0-0.4,0-0.5,0.1c-0.1,0.1-0.2,0.2-0.2,0.3c0,0.1,0.1,0.3,0.2,0.3c0.1,0.1,0.3,0.1,0.5,0.2l0.3,0.1
	c0.4,0.1,0.7,0.2,0.9,0.4c0.2,0.2,0.3,0.4,0.3,0.7c0,0.3-0.1,0.6-0.4,0.8C101.4,17.9,101,18,100.6,18z"/>
<path class="st1" d="M103.8,18c-0.5,0-0.9-0.1-1.1-0.3c-0.3-0.2-0.4-0.5-0.4-0.9h0.7c0,0.3,0.1,0.4,0.2,0.5c0.2,0.1,0.4,0.2,0.7,0.2
	c0.2,0,0.4,0,0.5-0.1c0.1-0.1,0.2-0.2,0.2-0.4c0-0.1-0.1-0.2-0.2-0.3c-0.1-0.1-0.3-0.1-0.6-0.2l-0.3-0.1c-0.8-0.1-1.2-0.5-1.2-1.1
	c0-0.3,0.1-0.6,0.4-0.7c0.2-0.2,0.6-0.3,1-0.3c0.5,0,0.8,0.1,1.1,0.3c0.2,0.2,0.4,0.5,0.4,0.8h-0.7c0-0.2-0.1-0.4-0.2-0.5
	c-0.1-0.1-0.3-0.1-0.6-0.1c-0.2,0-0.4,0-0.5,0.1c-0.1,0.1-0.2,0.2-0.2,0.3c0,0.1,0.1,0.3,0.2,0.3c0.1,0.1,0.3,0.1,0.5,0.2l0.3,0.1
	c0.4,0.1,0.7,0.2,0.9,0.4c0.2,0.2,0.3,0.4,0.3,0.7c0,0.3-0.1,0.6-0.4,0.8C104.6,17.9,104.3,18,103.8,18z"/>
<path class="st1" d="M107.4,17.9h-0.7v-3.6h0.7V17.9z"/>
<path class="st1" d="M110.5,14.4V15h-1.8v0.8h1.7v0.6h-1.7v1.5H108v-3.6H110.5z"/>
<path class="st1" d="M56.6,20l0.4-0.6h0.7l-1.3,2.2V23h-0.7v-1.4l-1.4-2.2h0.8l0.4,0.6c0.3,0.5,0.5,0.8,0.5,0.9
	C56.2,20.8,56.4,20.5,56.6,20z"/>
<path class="st1" d="M60.6,22.5c-0.3,0.3-0.8,0.5-1.3,0.5c-0.5,0-1-0.2-1.3-0.5c-0.3-0.3-0.5-0.8-0.5-1.4s0.2-1,0.5-1.4
	c0.3-0.3,0.8-0.5,1.3-0.5c0.5,0,1,0.2,1.3,0.5c0.3,0.3,0.5,0.8,0.5,1.4S60.9,22.2,60.6,22.5z M58.2,21.2c0,0.4,0.1,0.7,0.3,0.9
	c0.2,0.2,0.5,0.3,0.8,0.3c0.3,0,0.6-0.1,0.8-0.3c0.2-0.2,0.3-0.5,0.3-0.9c0-0.4-0.1-0.7-0.3-0.9c-0.2-0.2-0.5-0.3-0.8-0.3
	c-0.3,0-0.6,0.1-0.8,0.3C58.3,20.5,58.2,20.8,58.2,21.2z"/>
<path class="st1" d="M63,23c-0.5,0-0.8-0.1-1.1-0.4c-0.3-0.3-0.4-0.6-0.4-1.1v-2.2h0.7v2.2c0,0.3,0.1,0.5,0.2,0.6
	c0.1,0.1,0.3,0.2,0.6,0.2c0.3,0,0.5-0.1,0.6-0.2c0.1-0.1,0.2-0.3,0.2-0.6v-2.2h0.7v2.2c0,0.5-0.1,0.8-0.4,1.1
	C63.8,22.9,63.4,23,63,23z"/>
<path class="st1" d="M64.9,20.1v-0.7h0.7v0.7c0,0.4-0.2,0.7-0.6,0.7l-0.1,0v-0.3l0.1,0c0.1,0,0.2-0.1,0.2-0.3v-0.1H64.9z"/>
<path class="st1" d="M68.9,22l0,0.5c0,0.2,0,0.3,0.1,0.4h-0.7c-0.1-0.1-0.1-0.2-0.1-0.4l0-0.4c0-0.2-0.1-0.4-0.2-0.5
	c-0.1-0.1-0.2-0.1-0.4-0.1h-0.9V23h-0.7v-3.6h1.6c0.4,0,0.7,0.1,0.9,0.3c0.2,0.2,0.3,0.4,0.3,0.7c0,0.4-0.2,0.7-0.6,0.9
	c0.2,0.1,0.3,0.1,0.4,0.3C68.8,21.7,68.9,21.8,68.9,22z M66.8,20V21h0.9c0.2,0,0.3,0,0.4-0.1c0.1-0.1,0.2-0.2,0.2-0.4
	c0-0.2-0.1-0.3-0.2-0.4C68,20,67.8,20,67.6,20H66.8z"/>
<path class="st1" d="M72.1,19.4V20h-2v0.8h1.8v0.6h-1.8v0.9H72V23h-2.6v-3.6H72.1z"/>
<path class="st1" d="M76.8,23h-0.7l-0.3-0.8h-1.6L74,23h-0.7l1.4-3.6h0.8L76.8,23z M74.6,21.2l-0.1,0.4h1.2l-0.1-0.4
	c-0.1-0.3-0.3-0.7-0.4-1.2C74.9,20.4,74.8,20.8,74.6,21.2z"/>
<path class="st1" d="M79.6,19.4V20h-1.8v0.8h1.7v0.6h-1.7V23h-0.7v-3.6H79.6z"/>
<path class="st1" d="M82.8,22l0,0.5c0,0.2,0,0.3,0.1,0.4h-0.7c-0.1-0.1-0.1-0.2-0.1-0.4l0-0.4c0-0.2-0.1-0.4-0.2-0.5
	c-0.1-0.1-0.2-0.1-0.4-0.1h-0.9V23H80v-3.6h1.6c0.4,0,0.7,0.1,0.9,0.3c0.2,0.2,0.3,0.4,0.3,0.7c0,0.4-0.2,0.7-0.6,0.9
	c0.2,0.1,0.3,0.1,0.4,0.3C82.8,21.7,82.8,21.8,82.8,22z M80.7,20V21h0.9c0.2,0,0.3,0,0.4-0.1c0.1-0.1,0.2-0.2,0.2-0.4
	c0-0.2-0.1-0.3-0.2-0.4C81.9,20,81.8,20,81.6,20H80.7z"/>
<path class="st1" d="M86.5,23h-0.7l-0.3-0.8H84L83.7,23H83l1.4-3.6h0.8L86.5,23z M84.3,21.2l-0.1,0.4h1.2l-0.1-0.4
	c-0.1-0.3-0.3-0.7-0.4-1.2C84.6,20.4,84.5,20.8,84.3,21.2z"/>
<path class="st1" d="M87.5,23h-0.7v-3.6h0.7V23z"/>
<path class="st1" d="M88.1,19.4h1.4c0.6,0,1,0.2,1.3,0.5c0.3,0.3,0.5,0.8,0.5,1.3c0,0.6-0.2,1-0.5,1.3C90.5,22.8,90,23,89.4,23h-1.4
	V19.4z M88.8,22.4h0.7c0.4,0,0.6-0.1,0.8-0.3c0.2-0.2,0.3-0.5,0.3-0.9s-0.1-0.7-0.3-0.9c-0.2-0.2-0.5-0.3-0.8-0.3h-0.7V22.4z"/>
<path class="st1" d="M95.7,22.5c-0.3,0.3-0.8,0.5-1.3,0.5c-0.5,0-1-0.2-1.3-0.5c-0.3-0.3-0.5-0.8-0.5-1.4s0.2-1,0.5-1.4
	c0.3-0.3,0.8-0.5,1.3-0.5c0.5,0,1,0.2,1.3,0.5c0.3,0.3,0.5,0.8,0.5,1.4S96,22.2,95.7,22.5z M93.3,21.2c0,0.4,0.1,0.7,0.3,0.9
	c0.2,0.2,0.5,0.3,0.8,0.3c0.3,0,0.6-0.1,0.8-0.3c0.2-0.2,0.3-0.5,0.3-0.9c0-0.4-0.1-0.7-0.3-0.9c-0.2-0.2-0.5-0.3-0.8-0.3
	c-0.3,0-0.6,0.1-0.8,0.3C93.4,20.5,93.3,20.8,93.3,21.2z"/>
<path class="st1" d="M99.1,19.4V20h-1.8v0.8H99v0.6h-1.7V23h-0.7v-3.6H99.1z"/>
<path class="st1" d="M102.2,23.1c-0.5,0-0.9-0.2-1.3-0.5c-0.3-0.3-0.5-0.8-0.5-1.4c0-0.6,0.2-1,0.5-1.4c0.3-0.3,0.7-0.5,1.3-0.5
	c0.4,0,0.8,0.1,1.1,0.3c0.3,0.2,0.5,0.5,0.6,1h-0.7c-0.1-0.2-0.2-0.4-0.3-0.5c-0.2-0.1-0.4-0.2-0.6-0.2c-0.3,0-0.6,0.1-0.8,0.3
	c-0.2,0.2-0.3,0.5-0.3,0.9c0,0.4,0.1,0.7,0.3,0.9s0.4,0.3,0.8,0.3c0.2,0,0.5-0.1,0.6-0.2s0.3-0.4,0.3-0.6h0.7c0,0.5-0.2,0.8-0.5,1.1
	C103,22.9,102.6,23.1,102.2,23.1z"/>
<path class="st1" d="M106.6,20.8v-1.4h0.7V23h-0.7v-1.5h-1.7V23h-0.7v-3.6h0.7v1.4H106.6z"/>
<path class="st1" d="M111.1,23h-0.7l-0.3-0.8h-1.6l-0.3,0.8h-0.7l1.4-3.6h0.8L111.1,23z M108.8,21.2l-0.1,0.4h1.2l-0.1-0.4
	c-0.1-0.3-0.3-0.7-0.4-1.2C109.1,20.4,109,20.8,108.8,21.2z"/>
<path class="st1" d="M113.7,20.3v-0.9h0.7V23h-0.8l-1-1.6c-0.3-0.4-0.5-0.8-0.6-1.1c0,0.4,0,1,0,1.7V23h-0.7v-3.6h0.8l1,1.6
	c0.3,0.5,0.5,0.8,0.6,1.1C113.7,21.6,113.7,21,113.7,20.3z"/>
<path class="st1" d="M116.6,21.6V21h1.6V23h-0.5l-0.1-0.5c-0.3,0.4-0.6,0.6-1.2,0.6c-0.5,0-0.9-0.2-1.2-0.5
	c-0.3-0.3-0.5-0.8-0.5-1.4c0-0.6,0.2-1,0.5-1.4c0.3-0.3,0.7-0.5,1.3-0.5c0.4,0,0.8,0.1,1.1,0.3c0.3,0.2,0.5,0.5,0.5,0.9h-0.7
	c-0.1-0.2-0.2-0.4-0.3-0.5c-0.2-0.1-0.4-0.2-0.6-0.2c-0.3,0-0.6,0.1-0.8,0.3c-0.2,0.2-0.3,0.5-0.3,0.9c0,0.4,0.1,0.7,0.3,0.9
	c0.2,0.2,0.5,0.3,0.8,0.3c0.3,0,0.5-0.1,0.7-0.2c0.2-0.2,0.3-0.4,0.3-0.6H116.6z"/>
<path class="st1" d="M121.4,19.4V20h-2v0.8h1.8v0.6h-1.8v0.9h2V23h-2.6v-3.6H121.4z"/>
</svg>
