<?xml version="1.0" encoding="utf-8"?>
<!-- Generator: Adobe Illustrator 28.3.0, SVG Export Plug-In . SVG Version: 6.00 Build 0)  -->
<svg version="1.1" id="Calque_1" xmlns="http://www.w3.org/2000/svg" xmlns:xlink="http://www.w3.org/1999/xlink" x="0px" y="0px"
	 viewBox="0 0 107 54" style="enable-background:new 0 0 107 54;" xml:space="preserve">
<style type="text/css">
	.st0{clip-path:url(#SVGID_00000053541562188774551750000005107113024181220489_);}
	.st1{fill:#FFFFFF;}
	.st2{fill-rule:evenodd;clip-rule:evenodd;fill:#FFFFFF;}
</style>
<g>
	<defs>
		<rect id="SVGID_1_" x="2" width="66" height="40"/>
	</defs>
	<clipPath id="SVGID_00000094579733485434843870000004882621769353496744_">
		<use xlink:href="#SVGID_1_"  style="overflow:visible;"/>
	</clipPath>
	<g style="clip-path:url(#SVGID_00000094579733485434843870000004882621769353496744_);">
		<path class="st1" d="M35,40c-0.2,0-0.4,0-0.6,0h-0.1c-9-0.1-17.3-2.4-23.4-6.3C5.1,29.9,2,25.1,2,20c0-5.1,3.1-9.9,8.9-13.6
			c6.1-4,14.4-6.2,23.4-6.3h0.2c0.4,0,0.8,0,1.2,0h0.1c9,0.1,17.3,2.4,23.4,6.3C64.9,10.1,68,14.9,68,20s-3.1,9.9-8.8,13.6
			c-6.1,4-14.4,6.2-23.4,6.3h-0.2C35.4,40,35.2,40,35,40L35,40z M35,0.9c-0.2,0-0.4,0-0.6,0h-0.2c-8.8,0.1-17,2.3-22.9,6.2
			C5.9,10.7,2.9,15.2,2.9,20c0,4.8,3,9.3,8.4,12.9c6,3.9,14.1,6.1,22.9,6.2h0.1c0.4,0,0.8,0,1.2,0h0.2c8.8-0.1,16.9-2.3,22.9-6.2
			c5.4-3.5,8.4-8.1,8.4-12.9c0-4.8-3-9.3-8.4-12.9c-6-3.9-14.1-6.1-22.9-6.2h-0.1C35.4,0.9,35.2,0.9,35,0.9z"/>
		<path class="st1" d="M35,13.5c-3.4,0-6.7-0.3-9.9-0.9c-3-0.6-5.9-1.4-8.5-2.5c-2.1-0.8-4-1.8-5.7-3l-0.6-0.4l0.6-0.4
			c6.1-4,14.4-6.2,23.4-6.3h0.2c0.4,0,0.8,0,1.2,0h0.1c9,0.1,17.3,2.4,23.4,6.3l0.6,0.4l-0.6,0.4c-1.7,1.1-3.6,2.1-5.7,2.9
			c-2.6,1.1-5.5,1.9-8.5,2.5C41.7,13.2,38.4,13.5,35,13.5L35,13.5z M12,6.7c1.5,0.9,3.2,1.8,4.9,2.5c2.6,1.1,5.4,1.9,8.3,2.4
			c3.1,0.6,6.4,0.9,9.8,0.9s6.6-0.3,9.8-0.9c3-0.6,5.8-1.4,8.3-2.4c1.8-0.7,3.4-1.6,4.9-2.5c-5.9-3.6-13.8-5.7-22.3-5.8h-0.1
			c-0.4,0-0.8,0-1.2,0h-0.2C25.7,1.1,17.9,3.1,12,6.7L12,6.7z"/>
		<path class="st1" d="M35,40c-0.3,0-0.5,0-0.8,0c-9-0.1-17.3-2.4-23.4-6.3l-0.6-0.4l0.6-0.4c1.7-1.1,3.6-2.1,5.7-3
			c2.6-1.1,5.5-1.9,8.5-2.5c3.2-0.6,6.5-0.9,9.9-0.9c3.4,0,6.7,0.3,9.9,0.9c3,0.6,5.9,1.4,8.5,2.5c2.1,0.9,4,1.8,5.7,3l0.6,0.4
			l-0.6,0.4c-6.1,4-14.4,6.2-23.4,6.3C35.5,40,35.3,40,35,40z M12,33.3c5.9,3.6,13.8,5.7,22.3,5.8c0.5,0,1,0,1.5,0h0
			c8.5-0.1,16.4-2.2,22.3-5.8c-1.5-0.9-3.2-1.8-4.9-2.5c-2.6-1.1-5.4-1.9-8.4-2.4c-3.1-0.6-6.4-0.9-9.8-0.9c-3.3,0-6.6,0.3-9.8,0.9
			c-2.9,0.6-5.8,1.4-8.4,2.4C15.1,31.5,13.5,32.3,12,33.3z"/>
		<path class="st1" d="M35,40c-0.2,0-0.4,0-0.6,0c-7.4-0.2-14.1-3.7-18-9.4C14.2,27.4,13,23.8,13,20c0-3.8,1.2-7.4,3.3-10.6
			C20.3,3.7,27,0.2,34.4,0c0.4,0,0.8,0,1.2,0c7.4,0.2,14.1,3.7,18,9.4C55.8,12.6,57,16.2,57,20s-1.2,7.4-3.3,10.6
			c-3.9,5.7-10.7,9.2-18,9.4C35.4,40,35.2,40,35,40L35,40z M35,0.9c-0.2,0-0.4,0-0.6,0c-7.1,0.2-13.5,3.5-17.3,9
			c-2.1,3-3.2,6.5-3.2,10.1c0,3.6,1.1,7.1,3.2,10.1c3.8,5.5,10.2,8.8,17.3,9c0.4,0,0.8,0,1.2,0c7.1-0.2,13.6-3.5,17.3-9
			c2.1-3,3.2-6.5,3.2-10.1S55,12.9,52.9,9.9c-3.8-5.5-10.2-8.8-17.3-9C35.4,0.9,35.2,0.9,35,0.9L35,0.9z"/>
		<path class="st1" d="M35,40c-6.2,0-11.2-9-11.2-20S28.8,0,35,0c6.2,0,11.2,9,11.2,20S41.2,40,35,40z M35,0.9
			c-5.7,0-10.3,8.6-10.3,19.1S29.3,39.1,35,39.1c5.7,0,10.3-8.6,10.3-19.1S40.7,0.9,35,0.9z"/>
		<path class="st1" d="M35.5,0.5h-0.9v39.1h0.9V0.5z"/>
		<path class="st1" d="M67.5,19.5H2.5v0.9h65.1V19.5z"/>
	</g>
</g>
<path class="st1" d="M1.6,51H0.7v-5h0.9V51z"/>
<path class="st1" d="M5.7,47.3V46h0.9v5H5.6l-1.4-2.2c-0.4-0.6-0.7-1.1-0.9-1.5c0,0.5,0,1.3,0,2.4V51H2.4v-5h1l1.4,2.2
	c0.4,0.7,0.7,1.2,0.9,1.5C5.7,49,5.7,48.2,5.7,47.3z"/>
<path class="st1" d="M9.9,48.6l0.9-2.6h1L10,51H8.9L7,46h1L9,48.6c0.2,0.6,0.4,1.2,0.5,1.6C9.5,49.7,9.7,49.2,9.9,48.6z"/>
<path class="st1" d="M15.8,46v0.8h-2.7V48h2.5v0.8h-2.5v1.3h2.7V51h-3.7v-5H15.8z"/>
<path class="st1" d="M18.3,51.1c-0.7,0-1.2-0.2-1.6-0.5c-0.4-0.3-0.6-0.7-0.6-1.3h0.9c0,0.4,0.1,0.6,0.3,0.8
	c0.2,0.2,0.5,0.2,0.9,0.2c0.3,0,0.6-0.1,0.7-0.2c0.2-0.1,0.3-0.3,0.3-0.5c0-0.2-0.1-0.3-0.2-0.4c-0.1-0.1-0.4-0.2-0.8-0.3l-0.4-0.1
	c-1.1-0.2-1.6-0.7-1.6-1.5c0-0.4,0.2-0.8,0.5-1c0.3-0.3,0.8-0.4,1.4-0.4c0.7,0,1.2,0.1,1.5,0.4c0.3,0.3,0.5,0.7,0.5,1.2h-0.9
	c0-0.3-0.1-0.5-0.3-0.6c-0.2-0.1-0.4-0.2-0.8-0.2c-0.3,0-0.5,0.1-0.7,0.2c-0.2,0.1-0.2,0.3-0.2,0.5c0,0.2,0.1,0.4,0.2,0.5
	c0.1,0.1,0.4,0.2,0.8,0.3l0.4,0.1c0.6,0.1,1,0.3,1.3,0.5c0.3,0.2,0.4,0.5,0.4,1c0,0.5-0.2,0.9-0.5,1.1C19.4,51,18.9,51.1,18.3,51.1z
	"/>
<path class="st1" d="M20.3,46h4.1v0.8h-1.6V51h-1v-4.1h-1.6V46z"/>
<path class="st1" d="M25.9,51h-0.9v-5h0.9V51z"/>
<path class="st1" d="M30,47.3V46h0.9v5h-1l-1.4-2.2c-0.4-0.6-0.7-1.1-0.9-1.5c0,0.5,0,1.3,0,2.4V51h-0.9v-5h1l1.4,2.2
	c0.4,0.7,0.7,1.2,0.9,1.5C30,49,30,48.2,30,47.3z"/>
<path class="st1" d="M34.1,49.1v-0.8h2.2V51h-0.7l-0.1-0.7c-0.4,0.5-0.9,0.8-1.6,0.8c-0.7,0-1.3-0.2-1.7-0.7
	c-0.4-0.5-0.7-1.1-0.7-1.9s0.2-1.4,0.7-1.9c0.4-0.5,1-0.7,1.8-0.7c0.6,0,1.1,0.2,1.6,0.5c0.4,0.3,0.7,0.7,0.7,1.3h-1
	c-0.1-0.3-0.2-0.5-0.5-0.7c-0.2-0.2-0.5-0.3-0.9-0.3c-0.5,0-0.8,0.2-1.1,0.5c-0.3,0.3-0.4,0.8-0.4,1.3c0,0.6,0.1,1,0.4,1.3
	c0.3,0.3,0.6,0.5,1.1,0.5c0.4,0,0.7-0.1,1-0.3c0.3-0.2,0.4-0.5,0.4-0.9H34.1z"/>
<path class="st1" d="M39.5,51h-0.9v-5h0.9V51z"/>
<path class="st1" d="M43.6,47.3V46h0.9v5h-1.1l-1.4-2.2c-0.4-0.6-0.7-1.1-0.9-1.5c0,0.5,0,1.3,0,2.4V51h-0.9v-5h1l1.4,2.2
	c0.4,0.7,0.7,1.2,0.9,1.5C43.7,49,43.6,48.2,43.6,47.3z"/>
<path class="st1" d="M50,48.4l0.8-2.4h1.4v5h-0.9v-1.5c0-0.9,0-1.8,0-2.5c-0.1,0.3-0.2,0.7-0.4,1.1l-1,2.8h-0.8l-1-2.8
	c-0.2-0.5-0.3-0.9-0.4-1.1c0,0.7,0,1.5,0,2.5V51h-0.9v-5h1.4l0.9,2.4c0.1,0.2,0.2,0.6,0.4,1.4C49.7,49.3,49.8,48.8,50,48.4z"/>
<path class="st1" d="M55,51.1c-0.6,0-1.2-0.2-1.5-0.5c-0.4-0.4-0.6-0.8-0.6-1.5V46h0.9v3.1c0,0.4,0.1,0.7,0.3,0.9
	c0.2,0.2,0.5,0.3,0.8,0.3c0.4,0,0.7-0.1,0.8-0.3c0.2-0.2,0.3-0.5,0.3-0.9V46h0.9v3.1c0,0.6-0.2,1.1-0.6,1.5
	C56.2,50.9,55.7,51.1,55,51.1z"/>
<path class="st1" d="M59.8,51.1c-0.7,0-1.2-0.2-1.6-0.5c-0.4-0.3-0.6-0.7-0.6-1.3h0.9c0,0.4,0.1,0.6,0.3,0.8
	c0.2,0.2,0.5,0.2,0.9,0.2c0.3,0,0.6-0.1,0.7-0.2c0.2-0.1,0.3-0.3,0.3-0.5c0-0.2-0.1-0.3-0.2-0.4c-0.1-0.1-0.4-0.2-0.8-0.3l-0.4-0.1
	c-1.1-0.2-1.6-0.7-1.6-1.5c0-0.4,0.2-0.8,0.5-1c0.3-0.3,0.8-0.4,1.4-0.4c0.7,0,1.2,0.1,1.5,0.4c0.3,0.3,0.5,0.7,0.5,1.2h-0.9
	c0-0.3-0.1-0.5-0.3-0.6c-0.2-0.1-0.4-0.2-0.8-0.2c-0.3,0-0.5,0.1-0.7,0.2c-0.2,0.1-0.2,0.3-0.2,0.5c0,0.2,0.1,0.4,0.2,0.5
	c0.1,0.1,0.4,0.2,0.8,0.3l0.4,0.1c0.6,0.1,1,0.3,1.3,0.5c0.3,0.2,0.4,0.5,0.4,1c0,0.5-0.2,0.9-0.5,1.1C60.9,51,60.4,51.1,59.8,51.1z
	"/>
<path class="st1" d="M63.3,51h-0.9v-5h0.9V51z"/>
<path class="st1" d="M66.3,51.1c-0.7,0-1.3-0.2-1.7-0.7c-0.4-0.5-0.7-1.1-0.7-1.9c0-0.8,0.2-1.4,0.7-1.9c0.4-0.5,1-0.7,1.8-0.7
	c0.6,0,1.1,0.2,1.5,0.5c0.4,0.3,0.7,0.8,0.8,1.4h-1c-0.1-0.3-0.2-0.6-0.5-0.7c-0.2-0.2-0.5-0.3-0.8-0.3c-0.4,0-0.8,0.2-1.1,0.5
	c-0.3,0.3-0.4,0.7-0.4,1.3c0,0.6,0.1,1,0.4,1.3c0.3,0.3,0.6,0.5,1.1,0.5c0.3,0,0.6-0.1,0.9-0.3c0.2-0.2,0.4-0.5,0.4-0.9h0.9
	c-0.1,0.6-0.3,1.1-0.7,1.5C67.4,50.9,66.9,51.1,66.3,51.1z"/>
<path class="st1" d="M96.2,0.5c0.6,0.8,1,1.5,1.5,2.1c0.4,0.6,0.9,1.2,1.3,1.8c0.5,0.7,0.9,1.2,1.3,1.7c0.4,0.4,0.7,0.8,0.9,1
	c0.3,0.2,0.5,0.4,0.8,0.5c0.2,0.1,0.5,0.1,0.8,0.1c1.1,0,1.7-0.7,1.7-2.1c0-0.7-0.1-1.2-0.4-1.6c-0.3-0.4-0.7-0.6-1.4-0.8l0.3-2.9
	c1.3,0.2,2.2,0.8,2.9,1.7c0.7,0.9,1,2.1,1,3.7c0,1.6-0.3,2.8-1,3.7c-0.7,0.9-1.6,1.3-2.8,1.3c-0.6,0-1.1-0.1-1.5-0.3
	c-0.5-0.2-0.9-0.5-1.4-1c-0.5-0.5-1-1.1-1.6-1.9c-0.3-0.4-0.6-0.9-0.9-1.3c-0.3-0.4-0.6-0.9-1-1.5v6.3L94,10.8V0.5H96.2z"/>
<path class="st1" d="M106.9,13.6v3.2h-5.5l5.5,6.1v3.7l-4.9-5.4l-7.9,6v-3.7l6-4.5l-1.9-2.2H94v-3.2H106.9z"/>
<path class="st1" d="M96.2,28.4c0.6,0.8,1,1.5,1.5,2.1c0.4,0.6,0.9,1.2,1.3,1.8c0.5,0.7,0.9,1.2,1.3,1.7c0.4,0.4,0.7,0.8,0.9,1
	c0.3,0.2,0.5,0.4,0.8,0.5c0.2,0.1,0.5,0.1,0.8,0.1c1.1,0,1.7-0.7,1.7-2.1c0-0.7-0.1-1.2-0.4-1.6c-0.3-0.4-0.7-0.6-1.4-0.8l0.3-2.9
	c1.3,0.2,2.2,0.8,2.9,1.7c0.7,0.9,1,2.1,1,3.7c0,1.6-0.3,2.8-1,3.7c-0.7,0.9-1.6,1.4-2.8,1.4c-0.6,0-1.1-0.1-1.5-0.3
	c-0.5-0.2-0.9-0.5-1.4-1c-0.5-0.5-1-1.1-1.6-1.9c-0.3-0.4-0.6-0.9-0.9-1.3c-0.3-0.4-0.6-0.9-1-1.5V39L94,38.7V28.4H96.2z"/>
<path class="st1" d="M98,48.7c1.3,0,1.9-0.8,1.9-2.4c0-0.6-0.1-1-0.2-1.3c-0.1-0.3-0.3-0.7-0.6-1v-2.6l7.2,0.6v8.7h-2.4v-6.4
	l-2.5-0.2c0.2,0.4,0.4,0.9,0.4,1.3c0.1,0.4,0.1,1,0.1,1.6c0,1.5-0.4,2.6-1.1,3.4c-0.7,0.8-1.7,1.2-3,1.2c-1.4,0-2.5-0.5-3.2-1.4
	c-0.8-0.9-1.1-2.2-1.1-3.9c0-1.6,0.3-2.9,1-3.8c0.6-0.9,1.6-1.4,2.8-1.6V44c-0.5,0.1-0.9,0.4-1.1,0.8c-0.2,0.4-0.3,0.9-0.3,1.7
	C96,47.9,96.7,48.7,98,48.7z"/>
<path class="st2" d="M69,54H0l0-1h69V54z"/>
<path class="st1" d="M90,0.2v4.1h-0.7V2.6H85V1.8h4.3V0.2H90z"/>
<path class="st1" d="M87.9,8H90v0.7h-5V8h2.2V5.5H85V4.7h5v0.7h-2.1V8z"/>
<path class="st1" d="M90,13.2h-0.7v-2.8h-1.4V13h-0.7v-2.5h-1.6v2.8H85V9.7h5V13.2z"/>
<path class="st1" d="M88.5,18.6H90v0.7h-5v-0.9l2.4-1.5c0.7-0.4,1.2-0.8,1.6-1c-0.6,0-1.4,0-2.5,0H85v-0.7h5v0.9l-2.4,1.5
	c-0.7,0.4-1.2,0.7-1.6,1C86.5,18.6,87.4,18.6,88.5,18.6z"/>
<path class="st1" d="M90,23.7h-0.7v-2.8h-1.4v2.5h-0.7v-2.5h-1.6v2.8H85v-3.5h5V23.7z"/>
<path class="st1" d="M87.7,29.2l2.3,0.6v0.8l-5-1.4v-0.8l2.3-0.6c0.5-0.1,1-0.3,1.7-0.4c-0.7-0.2-1.3-0.3-1.7-0.4L85,26.2v-0.8
	l5-1.4v0.8l-2.3,0.6c-0.8,0.2-1.4,0.4-1.8,0.5c1.1,0.3,1.7,0.4,1.9,0.5l2.2,0.6v0.8l-2.2,0.6c-0.1,0-0.7,0.2-1.9,0.5
	C86.3,28.8,86.9,28.9,87.7,29.2z"/>
<path class="st1" d="M87.7,37.3l2.3,0.6v0.8l-5-1.4v-0.8l2.3-0.6c0.5-0.1,1-0.3,1.7-0.4c-0.7-0.2-1.3-0.3-1.7-0.4L85,34.3v-0.8
	l5-1.4v0.8l-2.3,0.6c-0.8,0.2-1.4,0.4-1.8,0.5c1.1,0.3,1.7,0.4,1.9,0.5L90,35v0.8l-2.2,0.6c-0.1,0-0.7,0.2-1.9,0.5
	C86.3,37,86.9,37.1,87.7,37.3z"/>
<path class="st1" d="M85,43v-0.8l1.3-0.5v-2.2L85,39v-0.8l5,1.9V41L85,43z M87.2,39.8l-0.3-0.1v1.8l0.3-0.1c0.6-0.2,1.3-0.5,2-0.8
	C88.4,40.3,87.7,40,87.2,39.8z"/>
<path class="st1" d="M87.1,45l2.9,1v0.8L85,45v-0.9l5-1.9v0.8l-2.9,1c-0.5,0.2-0.9,0.3-1.4,0.4C85.9,44.6,86.4,44.8,87.1,45z"/>
<path class="st1" d="M90,50.8h-0.7V48h-1.4v2.5h-0.7V48h-1.6v2.8H85v-3.5h5V50.8z"/>
<path class="st2" d="M77,54V0l1,0v54H77z"/>
</svg>
