<?xml version="1.0" encoding="utf-8"?>
<!-- Generator: Adobe Illustrator 28.3.0, SVG Export Plug-In . SVG Version: 6.00 Build 0)  -->
<svg version="1.1" id="Calque_1" xmlns="http://www.w3.org/2000/svg" xmlns:xlink="http://www.w3.org/1999/xlink" x="0px" y="0px"
	 viewBox="0 0 2500 1052.4" style="enable-background:new 0 0 2500 1052.4;" xml:space="preserve">
<style type="text/css">
	.st0{fill-rule:evenodd;clip-rule:evenodd;fill:#FFFFFF;}
</style>
<g>
	<path class="st0" d="M142.6,708.6v113.7h-20.8l1.9-93.4l-24.5,93.4H80.1l-24.6-93.4l2.1,93.4H36.8V708.6h30.9L89.9,793l21.7-84.4
		H142.6L142.6,708.6z M217.4,825.2c-14.3,0-27.5-4-39.2-17.4c-11.3-13-15.1-27.9-15.1-42.2c0-34.8,23.5-59.9,54.6-59.9
		c28.2,0,54.6,20.9,54.4,59.8C272,798,252.3,825.2,217.4,825.2z M217.5,725.1c-19.5,0-32.5,15.8-32.5,39.5c0,25.6,14.2,40.9,33,40.9
		c14.2,0,32.4-10.3,32.9-37.7C251.4,745.6,239.9,725.1,217.5,725.1L217.5,725.1z M360.1,727.9h-31.4v94.4h-21.3v-94.4h-30.8v-19.4
		h83.5V727.9z M397.3,708.6v113.7h-20.9V708.6H397.3z M472.6,825.2c-14.3,0-27.5-4-39.2-17.4c-11.3-13-15.1-27.9-15.1-42.2
		c0-34.8,23.5-59.9,54.6-59.9c28.2,0,54.6,20.9,54.5,59.8C527.2,798,507.5,825.2,472.6,825.2z M472.7,725.1
		c-19.5,0-32.6,15.8-32.6,39.5c0,25.6,14.2,40.9,33,40.9c14.2,0,32.4-10.3,32.9-37.7C506.6,745.6,495.1,725.1,472.7,725.1
		L472.7,725.1z M614.8,708.6h20.9v113.7h-18.5l-49.8-79.7l1.3,79.7H548V708.6h19.2l50.3,80.4L614.8,708.6L614.8,708.6z M705.7,708.6
		H744c6.3,0,12.9,0,19.5,1.8c11.1,3.1,26.7,13,26.7,36.1c0,15.1-7.1,31.4-27.4,35.9c-6.3,1.4-12.2,1.4-19.2,1.4h-16.6v38.5h-21.4
		V708.6L705.7,708.6z M727.1,726.8v39.5h15.3c4.5,0,8.4,0,12.1-1c13.2-3.2,14-15.3,14-19.3c0-8.4-3.7-12.7-5.6-14.5
		c-5.3-4.5-12.7-4.7-19.6-4.7L727.1,726.8L727.1,726.8z M830.4,708.6v113.7h-20.9V708.6H830.4z M951.9,790.5
		c-2.3,6.2-5.6,12-9.8,17.1c-8.1,9.3-20.8,17.6-39.3,17.6c-30.1,0-53.2-22.1-53.2-60.1c0-38.7,25-59.5,54-59.5
		c35.4,0,43.8,27.2,46.4,35.1l-21.3,5.7c-0.6-4-2-7.9-4.2-11.3c-2.4-3.5-8.7-10-20.5-10c-18.5,0-31.4,15.3-31.4,39.6
		c0,25.9,13.7,40.3,31.6,40.3c10.6,0,17.1-5.2,21.8-11.1c3.7-5,5.1-9.2,6-11.8L951.9,790.5L951.9,790.5z M1038.4,727.9H1007v94.4
		h-21.3v-94.4h-30.8v-19.4h83.5V727.9z M1146.3,708.6v71.7c-0.2,12.9-0.2,23.5-12.2,33.8c-11.6,10.2-26.6,11.1-34.3,11.1
		c-6.9,0-13.7-0.8-20.1-3.1c-13.5-4.7-20.8-14.5-23.4-23c-1.4-5-1.4-8.5-1.6-22.7v-67.8h21.3v69.9c0,4.8-0.2,9.5,1.5,13.9
		c4.3,11,16.3,12.3,23,12.3c3.4,0,11.9-0.2,18.2-5.7c6.3-5.6,6.3-12.1,6.3-21.6v-68.8L1146.3,708.6L1146.3,708.6z M1169.3,708.6
		h36.2c15.1,0.2,25.3,0.2,35.3,8.2c7.1,5.8,12.6,14.9,12.6,28c0,21.8-15.9,29.3-22.4,31.3l25.3,46.2h-24.3l-22.6-42.2h-19v42.2
		h-21.1V708.6L1169.3,708.6z M1190.4,726.9v35.6h7.4c7.3,0,10-0.2,14-0.3c4.7-0.2,20-1,20-17.6c0-2.4-0.2-10.8-9-15.3
		c-4.5-2.3-10-2.4-22.6-2.4L1190.4,726.9L1190.4,726.9z M1290.8,727.5v26.8h54.8v18.4h-54.8v30.5h64v19.2h-84.9V708.6h80.9v19
		H1290.8z M1474.9,800.1h-42.7l-6.6,22.2h-22.7l38.3-113.7h24.2l38.8,113.7h-22.7L1474.9,800.1L1474.9,800.1z M1469.2,781.5
		l-15.6-52.4l-15.8,52.4H1469.2L1469.2,781.5z M1527.4,788.5c2.7,4.2,11.3,17.2,35.3,17.2c4,0,8.2-0.3,12.2-1.9
		c8.2-3.4,9.7-9.2,9.7-13c0-7.3-5-9.8-8.6-11.3c-2.6-1-2.9-1.1-13.2-3.5l-13.7-2.9c-7.3-1.8-10.8-2.6-14.3-4
		c-5.2-2.1-19.2-9-19.2-27.9c0-21.6,18.2-35.4,45-35.4c24.5,0,37.7,12.1,45.7,23l-17.4,13c-3.9-5.6-11.3-16.9-29.5-16.9
		c-11.4,0-21.4,5.1-21.4,13.8c0,9.7,10.6,11.6,20.9,13.6l11.8,2.6c15.3,3.2,36.9,9.5,36.9,33.8c0,26.1-24.2,36.6-48.3,36.6
		c-6.8,0-13.7-0.8-20.3-2.6c-7.6-2.3-20.9-7.7-29.5-21.6L1527.4,788.5L1527.4,788.5z M1638.2,788.5c2.8,4.2,11.3,17.2,35.3,17.2
		c4,0,8.2-0.3,12.3-1.9c8.2-3.4,9.6-9.2,9.6-13c0-7.3-5-9.8-8.5-11.3c-2.6-1-2.9-1.1-13.2-3.5l-13.7-2.9c-7.3-1.8-10.8-2.6-14.3-4
		c-5.1-2.1-19.2-9-19.2-27.9c0-21.6,18.2-35.4,45-35.4c24.5,0,37.7,12.1,45.7,23l-17.4,13c-3.9-5.6-11.3-16.9-29.5-16.9
		c-11.4,0-21.4,5.1-21.4,13.8c0,9.7,10.6,11.6,20.9,13.6l11.8,2.6c15.3,3.2,36.9,9.5,36.9,33.8c0,26.1-24.2,36.6-48.3,36.6
		c-6.9,0-13.7-0.8-20.3-2.6c-7.6-2.3-20.9-7.7-29.5-21.6L1638.2,788.5L1638.2,788.5z M1786.1,825.2c-14.3,0-27.6-4-39.2-17.4
		c-11.3-13-15.1-27.9-15.1-42.2c0-34.8,23.5-59.9,54.6-59.9c28.2,0,54.6,20.9,54.5,59.8C1840.7,798,1821.1,825.2,1786.1,825.2z
		 M1786.3,725.1c-19.5,0-32.6,15.8-32.6,39.5c0,25.6,14.2,40.9,33.1,40.9c14.2,0,32.4-10.3,32.9-37.7
		C1820.1,745.6,1808.6,725.1,1786.3,725.1z M1960,790.5c-2.3,6.2-5.7,12-9.9,17.1c-8.1,9.3-20.8,17.6-39.3,17.6
		c-30.1,0-53.2-22.1-53.2-60.1c0-38.7,25-59.5,54-59.5c35.4,0,43.8,27.2,46.4,35.1l-21.3,5.7c-0.6-4-2-7.9-4.2-11.3
		c-2.4-3.5-8.7-10-20.5-10c-18.5,0-31.4,15.3-31.4,39.6c0,25.9,13.7,40.3,31.6,40.3c10.6,0,17.1-5.2,21.7-11.1c3.7-5,5.2-9.2,6-11.8
		L1960,790.5L1960,790.5z M1996.4,708.6v113.7h-20.9V708.6H1996.4z M2082.7,800.1H2040l-6.6,22.2h-22.7l38.4-113.7h24.2l38.8,113.7
		h-22.7L2082.7,800.1L2082.7,800.1z M2077.1,781.5l-15.6-52.4l-15.8,52.4H2077.1z M2187.6,727.9h-31.4v94.4h-21.3v-94.4h-30.8v-19.4
		h83.4V727.9z M2224.8,708.6v113.7h-20.9V708.6H2224.8z M2300,825.2c-14.3,0-27.6-4-39.1-17.4c-11.3-13-15.1-27.9-15.1-42.2
		c0-34.8,23.5-59.9,54.6-59.9c28.2,0,54.6,20.9,54.5,59.8C2354.6,798,2335,825.2,2300,825.2z M2300.2,725.1
		c-19.5,0-32.6,15.8-32.6,39.5c0,25.6,14.2,40.9,33,40.9c14.2,0,32.4-10.3,32.9-37.7C2334,745.6,2322.6,725.1,2300.2,725.1z
		 M2442.3,708.6h20.9v113.7h-18.5l-49.8-79.7l1.3,79.7h-20.8V708.6h19.2l50.3,80.4L2442.3,708.6L2442.3,708.6z M823.9,1000.9
		c-14.3,0-27.5-4-39.1-17.4c-11.3-13-15.1-27.9-15.1-42.2c0-34.8,23.5-59.9,54.6-59.9c28.2,0,54.6,20.9,54.5,59.8
		C878.5,973.7,858.8,1000.9,823.9,1000.9L823.9,1000.9z M824,900.9c-19.5,0-32.5,15.8-32.5,39.5c0,25.6,14.2,40.9,33,40.9
		c14.2,0,32.4-10.3,32.9-37.7C857.9,921.3,846.4,900.9,824,900.9L824,900.9z M910.5,931.6H958v18.2h-47.5V998h-21.1V884.2h75.2v19
		h-54.1V931.6L910.5,931.6z M1093.4,975.8h-42.7l-6.6,22.2h-22.7l38.3-113.8h24.2l38.8,113.8H1100L1093.4,975.8z M1087.8,957.2
		l-15.6-52.4l-15.8,52.4H1087.8L1087.8,957.2z M1242.4,884.2V998h-20.8l1.9-93.4l-24.5,93.4h-19.2l-24.7-93.4l2.1,93.4h-20.8V884.2
		h30.9l22.2,84.4l21.8-84.4L1242.4,884.2L1242.4,884.2z M1285.7,903.3V930h54.8v18.4h-54.8v30.4h64V998h-84.9V884.2h80.9v19H1285.7z
		 M1372.7,884.2h36.2c15.1,0.2,25.3,0.2,35.3,8.2c7.1,5.8,12.6,14.8,12.6,28c0,21.7-16,29.3-22.4,31.3l25.3,46.2h-24.3l-22.5-42.2
		h-19V998h-21.1L1372.7,884.2L1372.7,884.2z M1393.8,902.6v35.6h7.4c7.3,0,10-0.2,14-0.3c4.7-0.2,20-1,20-17.6
		c0-2.4-0.2-10.8-9-15.3c-4.5-2.3-10-2.4-22.6-2.4H1393.8L1393.8,902.6z M1494.6,884.2V998h-20.9V884.2L1494.6,884.2L1494.6,884.2z
		 M1616.1,966.3c-2.3,6.2-5.6,12-9.8,17.1c-8,9.4-20.8,17.6-39.3,17.6c-30.1,0-53.2-22.1-53.2-60.1c0-38.6,25-59.5,54-59.5
		c35.4,0,43.8,27.2,46.4,35.1l-21.3,5.7c-0.6-4-2-7.8-4.2-11.3c-2.4-3.5-8.7-10-20.4-10c-18.5,0-31.4,15.3-31.4,39.6
		c0,25.9,13.7,40.3,31.6,40.3c10.6,0,17.1-5.1,21.8-11.1c2.7-3.6,4.7-7.5,6-11.8L1616.1,966.3L1616.1,966.3z M1688.6,975.8h-42.7
		l-6.6,22.2h-22.7l38.4-113.8h24.2l38.8,113.8h-22.7L1688.6,975.8z M1682.9,957.2l-15.6-52.4l-15.8,52.4H1682.9z M1413.2,195.5
		c-12.9-12.9-28.4-19.4-46.7-19.4c-18.2,0-33.7,6.5-46.6,19.4c-12.9,12.9-19.4,28.6-19.4,46.6c0,18.2,6.5,33.9,19.4,47.1
		c12.9,12.9,28.4,19.4,46.6,19.4c18.3,0,33.7-6.5,46.7-19.4c12.9-13.2,19.4-28.9,19.4-47.1C1432.5,224.1,1426.1,208.4,1413.2,195.5z
		 M1280.3,193.6c13.7-20,30.8-35.2,50.8-45.5c-11.6-9.8-35.7-15.5-71-17.4c-32.3-1.9-58.3,3.4-78.4,15.2
		c18.6,10.3,35.7,25.5,50.8,45.5c7.9,11.1,15.5,30.8,22.8,59.7C1260.2,230.6,1268.7,211.1,1280.3,193.6L1280.3,193.6z M1298.3,360.6
		c0-11.8-4.2-21.6-12.6-30.3c-8.2-8.4-18.6-12.6-30.3-12.6c-11.8,0-22,4.2-30.3,12.6c-8.2,7.9-12.8,18.9-12.6,30.3
		c0,11.8,4.2,21.9,12.6,30.3s18.6,12.6,30.3,12.6c11.8,0,22.1-4.2,30.3-12.6C1293.9,383,1298.4,372,1298.3,360.6z M1349.9,356.1
		c20.5,4.8,39.4,13.2,57.3,25c20,13.2,35.2,30.3,45.5,50.5c9.9-11.8,15.5-35.7,17.5-71c1.9-31.8-3.4-58.1-15.2-78.1
		c-10.2,18.6-25.5,35.2-45.5,50.3C1398.5,340.9,1378.6,348.8,1349.9,356.1z M1333.6,563.3c-18.7-10.3-35.3-25.5-50.5-45.5
		c-8.1-11.1-16-30.8-23.3-60c-4.9,20.4-13.3,39.8-25,57.3c-13.4,20.2-30.3,35.3-50.5,45.5c11.8,10,35.7,16,71,17.9
		C1287.3,579.9,1313.4,575.1,1333.6,563.3L1333.6,563.3z M1102.8,334c-20.2-13.2-35.3-30.3-45.5-50.4c-10,11.8-15.7,35.7-17.6,70.9
		c-1.8,31.9,3.6,58.1,15.3,78.3c10.2-18.6,25.3-35.3,45.5-50.5c11-7.9,30.7-16,59.6-23.1C1139.7,354.2,1120.3,345.7,1102.8,334
		L1102.8,334z M1077.8,244.9c0,18.2,6.5,33.7,19.4,46.6c12.8,12.9,28.2,19.4,46.7,19.4c18.6,0,34.1-6.5,47-19.4
		c12.9-12.9,19.4-28.4,19.4-46.6c0-18.6-6.5-34.2-19.4-47.1c-12.9-12.9-28.4-19.4-47-19.4c-18.4,0-33.9,6.5-46.7,19.4
		C1084.3,210.7,1077.8,226.3,1077.8,244.9L1077.8,244.9z"/>
	<path class="st0" d="M1413.2,195.5c12.9,12.9,19.4,28.6,19.4,46.6c0,18.2-6.4,33.9-19.4,47.1c-12.9,12.9-28.4,19.4-46.7,19.4
		c-18.2,0-33.7-6.5-46.6-19.4c-12.9-13.2-19.4-28.9-19.4-47.1c0-18.1,6.5-33.7,19.4-46.6c12.9-12.9,28.4-19.4,46.6-19.4
		C1384.8,176.1,1400.3,182.6,1413.2,195.5z M1280.3,193.6c-11.7,17.5-20.1,37-25,57.5c-7.3-28.9-14.9-48.6-22.8-59.7
		c-15.2-20-32.3-35.2-50.8-45.5c20.2-11.8,46.2-17.1,78.4-15.2c35.3,1.9,59.4,7.6,71,17.4C1311.2,158.4,1294.1,173.6,1280.3,193.6
		L1280.3,193.6z M1298.3,360.6c0,11.8-4.2,21.9-12.6,30.3c-8.2,8.4-18.6,12.6-30.3,12.6c-11.8,0-22-4.2-30.3-12.6
		c-8.4-8.4-12.6-18.6-12.6-30.3c0-11.8,4.2-22,12.6-30.3c7.9-8.2,18.9-12.8,30.3-12.6c11.8,0,22.1,4.2,30.3,12.6
		C1294.1,339,1298.3,348.8,1298.3,360.6z M1349.9,356.1c28.7-7.3,48.6-15.2,59.6-23.2c20-15.2,35.3-31.8,45.5-50.3
		c11.8,20,17.1,46.3,15.2,78.1c-1.9,35.3-7.6,59.2-17.5,71c-10.3-20.2-25.5-37.3-45.5-50.5C1389.3,369.3,1370.4,360.9,1349.9,356.1
		L1349.9,356.1z M1333.6,563.3c-20.2,11.8-46.3,16.6-78.3,15.2c-35.4-1.9-59.2-7.9-71-17.9c20.2-10.2,37.1-25.3,50.5-45.5
		c11.7-17.4,20.2-36.9,25-57.3c7.3,29.2,15.2,48.9,23.3,60C1298.3,537.8,1314.9,553,1333.6,563.3z M1102.8,334
		c17.5,11.7,36.9,20.2,57.3,25.2c-28.9,7.1-48.6,15.2-59.6,23.1c-20.2,15.2-35.4,32-45.5,50.5c-11.8-20.2-17.1-46.3-15.3-78.3
		c1.9-35.2,7.6-59.1,17.6-70.9C1067.5,303.6,1082.6,320.7,1102.8,334L1102.8,334z M1077.8,244.9c0-18.6,6.5-34.2,19.4-47.1
		c12.8-12.9,28.2-19.4,46.7-19.4c18.6,0,34.1,6.5,47,19.4c12.9,12.9,19.4,28.6,19.4,47.1c0,18.2-6.5,33.7-19.4,46.6
		c-12.9,12.9-28.4,19.4-47,19.4c-18.4,0-33.9-6.5-46.7-19.4C1084.3,278.6,1077.8,263.1,1077.8,244.9L1077.8,244.9z M1362,398.2
		c-18.2,0-33.7,6.5-46.6,19.4c-12.9,12.9-19.4,28.4-19.4,46.6c0,18.2,6.4,33.7,19.4,47.1c12.9,12.9,28.4,19.4,46.6,19.4
		c18.6,0,34.2-6.5,47.1-19.4c12.8-13.4,19.2-28.9,19.2-47.1c0-18.2-6.5-33.7-19.2-46.6C1396.2,404.7,1380.6,398.2,1362,398.2z"/>
	<path class="st0" d="M1362,398.2c18.6,0,34.2,6.5,47.1,19.4c12.8,12.9,19.2,28.4,19.2,46.6c0,18.2-6.5,33.7-19.2,47.1
		c-12.9,12.9-28.5,19.4-47.1,19.4c-18.2,0-33.7-6.5-46.6-19.4c-12.9-13.4-19.4-28.9-19.4-47.1c0-18.2,6.4-33.7,19.4-46.6
		C1328.3,404.7,1343.8,398.2,1362,398.2z M1218.8,462.3c0-18.2-6.5-33.7-19.4-46.6c-12.9-13.2-28.4-19.7-47-19.7
		c-18.2,0-33.7,6.5-46.7,19.7c-12.9,12.9-19.4,28.4-19.4,46.6c0,18.2,6.5,33.9,19.4,46.8c12.9,12.9,28.4,19.2,46.7,19.2
		c18.6,0,34-6.3,47-19.2C1212.4,496.2,1218.8,480.5,1218.8,462.3z"/>
	<path class="st0" d="M1218.8,462.3c0,18.2-6.5,33.9-19.4,46.8c-12.9,12.9-28.4,19.2-47,19.2c-18.2,0-33.7-6.3-46.7-19.2
		c-12.9-12.9-19.4-28.6-19.4-46.8c0-18.2,6.5-33.7,19.4-46.6c12.9-13.2,28.4-19.7,46.7-19.7c18.6,0,34,6.5,47,19.7
		C1212.4,428.6,1218.8,444,1218.8,462.3z"/>
	<path class="st0" d="M1914.1,226.3c-14.1-14.1-29.3-27.1-45.5-38.7c-32.3-23.2-72.1-44.1-119.1-62.6
		c-68.8-27.4-148.5-48.3-239.8-62.6c-89.6-14.5-183.7-21.6-282.4-21.6c-93.8,0-185.1,9.5-273.6,28.7c-82,17.9-156.1,42.9-221.8,74.9
		c-63.3,30.3-112.7,64.1-148.6,101.3c-36.1,37.1-54.4,73.6-54.4,108.8c0,35.3,20.2,71.5,60.4,108.3c39.5,36,93.8,68.6,162.8,97.8
		c71.7,30.3,151.1,53.6,237.9,69.9c94.1,17.2,189.8,24.7,285.5,22.4c203-5,370.4-36.5,502.9-94.6c34.5-15.2,64.4-31.5,90.2-48.9
		c19.4-13.2,36.1-27,50.2-41.3c32.9-33.4,50.3-67.9,52.3-103.6C1973.8,314.3,1954.8,268.4,1914.1,226.3L1914.1,226.3z M1742.7,173.1
		c51.5,23.2,93.6,48.6,125.9,75.5l12.6,11.1c28.1,26.1,44.4,50.8,48.6,74.7h-142c-1.8-30.8-15.8-62.3-42.1-94.1
		c-27.6-33.9-65.5-64.2-114.6-91.8c-23.4-13.2-47.6-24.9-72.4-35C1625.7,128.7,1687.2,148.5,1742.7,173.1z M1608,173.1
		c44.4,23.6,78.4,50.2,103.1,80.2c21.6,26.5,33.9,53.4,36.8,81.2h-188.2c-0.3-38.4-8.7-75.5-24.2-110.9
		c-15.4-35.5-37.7-67.6-65.7-94.4l-11.8-10.6C1513.9,131.4,1563.9,149.7,1608,173.1z M946.4,332.8H763.1c3.4-27,16.3-53.4,38.7-79.6
		c25.8-29.7,61.8-56.2,108.6-80.2c39.1-20,83.1-36.3,131.2-48.9l-5.3,5c-27.9,26.8-50.3,58.9-65.7,94.4
		C955.3,258,947.1,295.2,946.4,332.8L946.4,332.8z M634.1,251.7c33.7-32.3,80.9-61,140.7-86.5c55.4-23.1,115.7-41.8,181.4-55.4
		c-28.2,11-55.6,23.9-82,38.7c-48.9,27.6-86.8,57.9-114.6,91.8c-25.5,31.5-39.5,62.1-41.8,92.5H582.8
		C589.3,305.3,606.4,278.3,634.1,251.7L634.1,251.7z M781.3,531.3c-64.1-25.3-114.3-53.4-149.9-84.6c-27.3-24.4-43.6-48.2-49.4-72.1
		h139.6c5.8,23.2,17.9,46.3,36.6,69.4c27,33.9,64.1,64.6,111.5,93.1c31.5,18.6,66,34.9,102.8,48.9
		C902.9,572.3,838.9,554.1,781.3,531.3L781.3,531.3z M911.6,521.5c-46.8-23.6-83.1-50-109.4-79.7c-19.4-21.9-31.5-44.4-36.8-67.1
		h183.3c3.4,27.6,10.8,54.6,22,80c15.6,35.5,37.9,67.6,65.7,94.6c10.1,9.7,20.9,18.7,32.3,26.9
		C1010.2,562.8,957.9,544.8,911.6,521.5L911.6,521.5z M1257.6,603.5c-72.1,0-133.6-25.3-184.5-76.3
		c-51.2-51.2-76.7-112.7-76.7-184.8c0-35.2,6.9-69.4,20.5-101.7c13.2-31,32.3-59.1,56.2-82.8c50.8-51.2,112.3-76.7,184.5-76.7
		c73.6,0,135.1,24,184.8,71.3c51.3,49.4,76.7,112.8,76.7,189.8c0,72.1-25.4,133.6-76.7,184.8
		C1391.2,578.2,1329.7,603.5,1257.6,603.5L1257.6,603.5z M1428.8,582.7l41-33.4c27.8-27,50.1-59.1,65.7-94.6
		c11-25.3,18.5-51.6,21.9-78.4h188.2c-5.3,22.3-16.6,43.9-34,65.5c-24.4,30-58.4,56.7-102.5,79.7c-44.4,23.9-95.7,42.1-153.3,55.4
		L1428.8,582.7L1428.8,582.7z M1882.3,444l-13.7,12.6c-30.6,26.1-71.6,50-122.2,71.3c-59.5,25.5-128.6,45.2-207.2,59.5l-6.8,1.6
		c31.8-12.4,62.6-27.2,92.2-44.4c50.5-29.2,89.9-62,119.3-98c19.2-23.9,32.6-47.4,39.1-70.5h143.8
		C1919.9,399.3,1905.1,421.8,1882.3,444L1882.3,444z"/>
</g>
</svg>
